/* XPM */
static char *e790308ebc81403efe3eff682038fed8WO3bGPELsrkwuNM7[] = {
/* columns rows colors chars-per-pixel */
"50 50 72 1 ",
"  c None",
". c black",
"X c #040404",
"o c #090A0B",
"O c #0D1013",
"+ c #12161A",
"@ c #30251E",
"# c #191F25",
"$ c #3E2F27",
"% c #242D36",
"& c #2E353C",
"* c #4A3120",
"= c #543621",
"- c #593D25",
"; c #473D36",
": c #673F23",
"> c #71551B",
", c #524236",
"< c #5B493A",
"1 c #6A4226",
"2 c #704628",
"3 c #72482A",
"4 c #7A4F2E",
"5 c #634831",
"6 c #6B4F37",
"7 c #735135",
"8 c #76593F",
"9 c #2E3A44",
"0 c #2F3C49",
"q c #33404D",
"w c #364452",
"e c #394957",
"r c #3D4D5D",
"t c #42484D",
"y c #524942",
"u c #4C565F",
"i c #415465",
"p c #445769",
"a c #485C6F",
"s c #5B5D62",
"d c #4C6276",
"f c #52687E",
"g c #636263",
"h c #69696A",
"j c #6D6F73",
"k c #825634",
"l c #855D3A",
"z c #826727",
"x c #9F7B21",
"c c #8E613C",
"v c #93663F",
"b c #986941",
"n c #9B6B42",
"m c #9D6C43",
"M c #A06F46",
"N c #A47349",
"B c #A67449",
"V c #AA774B",
"C c #AC784C",
"Z c #B37C4E",
"A c #B57E51",
"S c #B77F51",
"D c #B77F52",
"F c #F8CA3F",
"G c #A78C41",
"H c #B88051",
"J c #576F87",
"K c #5D7790",
"L c #81858B",
"P c #888C92",
"I c #8E9197",
"U c #969A9E",
/* pixels */
"                                                  ",
"                                                  ",
"                                                  ",
"                      pipee9&%#                   ",
"                  dar%paar%wwrJr#.                ",
"                 KJwaweppair%diwa0#o              ",
"               aedKddf%%%qe9iKffKaq9X             ",
"              aai&dpifr9i0ewJJadd%ea#o            ",
"             aaadq%wepi%eewwa&qd0rpa0%X           ",
"            waapu;*$=-**==$*-=@-;ewaarO           ",
"           ewqaq-411bn44nv2lnc:ln6&ai9%o          ",
"           aa99$3ck3BCkkCB4vCM3nHm*r%&p9          ",
"          aKJf;=4Cc3BCkkCN4cVM3nAn1$rJKrX         ",
"          Kfir*=vAc3BCkkCN4bVM2bDm26dddfO         ",
"          aae$::mAc3BCkkCN4cVN3bDn3c%&wp+         ",
"           XO@11BAc3BCkkCN4bVm3bDm3v####+         ",
"          %ww;:1BAc3BCkkCN7vVM3vAm2vt0000X        ",
"         9fKf;:1BHc3BCkkCN3bVM3nDm2btaJi+         ",
"         aKKK<:1NAc3BCkkCN4bCM3vDm2vuKKKiX        ",
"          000$11BHc3BCkkCB4bCM3mSm2v&000%X        ",
"          %+#@==lc3=ll11ll-7lk-7vk-7@#+%#         ",
"         wewwtshhgghgghhgghhgghggghs09%wwX        ",
"         q%rapPIIPPUIPIUPPIIPPIIPPULepi&qX        ",
"         wppa9;;yyy;yy;;yy;yyy;yyy;;wdiiwX        ",
"         %wqq$::nVk1mM44Mm3cMv1cVv1l&0qq%X        ",
"         qrpp;:1BHc3BCkkCB4vCM3nZv-ctappwX        ",
"         9pKKy:1BAc3BCkkCN4vCM3nCxGluKpeqX        ",
"         iKKKy:1BAc3BCkkCB4vCM3v7xFzuKKJw         ",
"         pKKJy:1BAc3BCkkVB4vVM3v>>zzpKKKp         ",
"         %009$:1BAc3BCkkCB4vVM3mM>>-&000%         ",
"         qppi;:1BAc3BCkkCB4vCM3vSl-ltpppq         ",
"         %ipi;11BAc3BCkkCM4vVM3mSm3vtdaa9         ",
"         900r;:1BDc3BCkkCN4vCM3bAn3ctaqe&         ",
"         rapa;:1NDc2BCkkCN4vCM3bAn3btapaw         ",
"         %009$::NZc2NCkkCm4vBn2bZn2c&000%         ",
"         iffd&$;<<,;<<;,<<;,<<;,<,;,9ddfr         ",
"         qaJKsLUILLUPLIULLIILLIPLLULuKdJi         ",
"         rdJKujjjjjjjjjjjjjjjjjjjjjhuKfww         ",
"         pJJJ;**685*67--76=576*585=<tJJfi         ",
"         %999$11CHc3BCkkCB4bCM3nHn3b&990%         ",
"         eprp;:1BDc3BCkkCN4cVN2bDm2ctaraw         ",
"         eeei;:1NDc2BCkkCN4bVm3nDm3vtiqew         ",
"         wiaa;11BDc3BCkkCB4nVM3nDn3v9iiiw         ",
"          ###@**885=88--88-686*686=5####+         ",
"              .XXXXXXX  XX.XXX X.XXX..            ",
"                                                  ",
"                                                  ",
"                                                  ",
"                                                  ",
"                                                  "
};
