/* XPM */
static char *_16203917f9b411387a8d821e1073dfe41UO2KXS7pKHUfeW[] = {
/* columns rows colors chars-per-pixel */
"50 50 202 2 ",
"   c None",
".  c black",
"X  c #010000",
"o  c #020100",
"O  c #040302",
"+  c #030602",
"@  c #090302",
"#  c #080401",
"$  c #000B01",
"%  c #00050A",
"&  c #040508",
"*  c #140904",
"=  c #1E0F05",
"-  c #041205",
";  c #0D1004",
":  c #001C07",
">  c #10131C",
",  c #260E08",
"<  c #26110A",
"1  c #2B150A",
"2  c #331B08",
"3  c #341B08",
"4  c #38190F",
"5  c #022005",
"6  c #002008",
"7  c #01310B",
"8  c #00330D",
"9  c #003A0E",
"0  c #063D0E",
"q  c #302B04",
"w  c #2C2210",
"e  c #3E2C13",
"r  c #2C2B2B",
"t  c #4D270B",
"y  c #492011",
"u  c #512611",
"i  c #533314",
"p  c #633211",
"a  c #6C3712",
"s  c #723A10",
"d  c #733B11",
"f  c #733C12",
"g  c #773D13",
"h  c #4F3C20",
"j  c #014101",
"k  c #19490D",
"l  c #034C12",
"z  c #005716",
"x  c #035F17",
"c  c #30400D",
"v  c #345E18",
"b  c #016619",
"n  c #1E6D1C",
"m  c #00701C",
"M  c #02781D",
"N  c #007C1E",
"B  c #007C1F",
"V  c #027E1F",
"C  c #147018",
"Z  c #256B1B",
"A  c #33631D",
"S  c #4B430F",
"D  c #554A14",
"F  c #5E5C18",
"G  c #6F4614",
"H  c #784117",
"J  c #7D4619",
"K  c #4C6B19",
"L  c #434A32",
"P  c #594C3A",
"I  c #6E4423",
"U  c #6C4425",
"Y  c #6C5524",
"T  c #41762E",
"R  c #517A23",
"E  c #4D6433",
"W  c #7B6128",
"Q  c #142B51",
"!  c #264D78",
"~  c #6A5C48",
"^  c #486F44",
"/  c #5B6550",
"(  c #7A6E5B",
")  c #5B6372",
"_  c #517579",
"`  c #855022",
"'  c #8A572A",
"]  c #96642A",
"[  c #8F722E",
"{  c #9E722F",
"}  c #806438",
"|  c #946335",
" . c #A1753A",
".. c #A17B3D",
"X. c #A67D3C",
"o. c #AB7D3E",
"O. c #A87F3E",
"+. c #B07C32",
"@. c #9C6B41",
"#. c #A27349",
"$. c #A87C53",
"%. c #977F78",
"&. c #09811E",
"*. c #11891F",
"=. c #1B8F1F",
"-. c #248E1E",
";. c #308518",
":. c #378E19",
">. c #24971F",
",. c #2F9E1F",
"<. c #32A01F",
"1. c #3CA61F",
"2. c #48961D",
"3. c #429B1D",
"4. c #649C13",
"5. c #68B819",
"6. c #6ABB18",
"7. c #7BBD10",
"8. c #569E25",
"9. c #73932E",
"0. c #5CA820",
"q. c #5A954D",
"w. c #B19019",
"e. c #858934",
"r. c #978239",
"t. c #AF8837",
"y. c #B38F34",
"u. c #B79532",
"i. c #BF943F",
"p. c #BFA22B",
"a. c #C4A90E",
"s. c #CFBE07",
"d. c #D4BF1E",
"f. c #C69F3A",
"g. c #C7AC25",
"h. c #C1A728",
"j. c #CCB422",
"k. c #CBAA32",
"l. c #E4BD3E",
"z. c #CFC611",
"x. c #D8C619",
"c. c #DFCD1B",
"v. c #E4D713",
"b. c #E7D919",
"n. c #F1DF1C",
"m. c #EEE50D",
"M. c #F3F106",
"N. c #F8F306",
"B. c #F9F704",
"V. c #FFFF01",
"C. c #F8FE05",
"Z. c #E9CD2C",
"A. c #EAC539",
"S. c #AD8549",
"D. c #B38B46",
"F. c #B38D52",
"G. c #B3895F",
"H. c #BA935D",
"J. c #8D9B69",
"K. c #A28360",
"L. c #A68B6B",
"P. c #BD9A61",
"I. c #BF9B66",
"U. c #BF9868",
"Y. c #BE996F",
"T. c #C29347",
"R. c #D5A44D",
"E. c #E2B153",
"W. c #C39E6A",
"Q. c #C6A278",
"!. c #486698",
"~. c #2FB5B2",
"^. c #5DBEB5",
"/. c #60C2B8",
"(. c #00A1E3",
"). c #42B1D2",
"_. c #91939A",
"`. c #B5A383",
"'. c #BEA382",
"]. c #879BBC",
"[. c #CFAC81",
"{. c #D1AF87",
"}. c #D3B187",
"|. c #D9B78E",
" X c #DDBD93",
".X c #97CAA1",
"XX c #96CAA2",
"oX c #E3C497",
"OX c #E4C69C",
"+X c #E7CB9F",
"@X c #F3D8AE",
"#X c #E1D1B4",
"$X c #F7DEB6",
"%X c #FBE2B9",
"&X c #FFE8BF",
"*X c #F0E0C1",
"=X c #FFEAC2",
"-X c #FDEAC8",
";X c #F2E6D7",
":X c #FFEFD3",
">X c #F0EFEF",
",X c #FFFFFB",
/* pixels */
"                                                                                                    ",
"                                                                                                    ",
"                                                                                                    ",
"                                                                                                    ",
"                                                                                                    ",
"                                        o 8 B B B B B B 8 o                                         ",
"                                        6 l *.*.*.*.*.*.l 6                                         ",
"                                    @ - m =.1.1.1.1.1.1.=.m - @                                     ",
"                                  @ 8 l M &.=.=.=.=.=.=.&.M l 8 #                                   ",
"                                  $ x &.V V B B B B &.B V V V b $                                   ",
"                              % 8 b -.,.,.,.,.,.<.,.,.,.,.,.,.-.b 8 %                               ",
"                              o 0 *.3.8.6.6.6.0.8.8.0.6.0.8.8.3.*.0 o                               ",
"                              o k 1.e.y.M.C.C.h.....h.C.g.X...e.1.k o                               ",
"                            ; 9 A 9.r.y.B.m.d.d.j.X.h.V.v.j.t...9.A 9 ;                             ",
"                          o 5 M R O.O.u.B.c.O.v.M.y.h.V.C.M.u.t.#.R M 5 o                           ",
"                    X.I.{.I i D [ R.c.b.A.Z.m.j.p.v.b.A.k.p.v.x.t.W D i U }.U.X.                    ",
"                    { W. X#.' J +.l.n.m.E.Z.M.h.t.N.n.R.T.D.n.v.u.] J ' #. XU.{                     ",
"                    d Y.=X%X+XO.j.V.h.u.N.c.X.X.t.B.v.O.W.Q.D.h.B.j.t.+X$X-XY.g                     ",
"                    s $.Q.+X X| w.x.f.f.B.m.j.f.i.a.h.H. XOXS.u.n.k.#.oX+XQ.$.s                     ",
"                      s H Y.Q.H ' O.R.l.B.V.V.A.R.J | |.@X$XF.D.E.T.t.[.Y.H s                       ",
"                          ).^.z.w.` T.E.A.l.p.{ ] G.[.@X$X%X}.H.] a.v./.).                          ",
"                          (.~.C.a.J T.E.R.T. .' ' }.+X@X@X@X}.G.H a.C.~.(.                          ",
"                          % c B.x...oX@XD.] g G.}.$XoXS.S.S.` '  .x.B.c %                           ",
"                          o q b.g.| W.Q.X. .@.[.+X=X+XH.S. .J J ] g.b.q o                           ",
"                          o w R.+.f f J  .H.|.@X&X&X@X|.H. .J s s +.R.w o                           ",
"                              h e < L.'.) _.;X-X&X&X-X;X_.) '.K.1 e h                               ",
"                              o . & `.#X!.].,X:X&X&X:X,X].!.#X`.+ o o                               ",
"                                o o W P.#X%X-X=X&X&X=X-X*X#XP.} o o                                 ",
"                                : 5 Y  .{.oX@X@X@X@X@X@XoX[. .Y 5 :                                 ",
"                              o 8 M D g g | |.|.|.|.|.|.@.s g D M 8 o                               ",
"                            % Q _ XXE c A T q.q.q.q.q.q.T v c E XX/ , &                             ",
"                          o > ! ].>X^ j M B B B B B B B V M j ^ >X%.y * o                           ",
"                        o t p U L r i D M V B V V V M V B M D i r i a p t o                         ",
"                      o + U | @.i $ S F Z Z n :.3.3.:.n n Z F S $ h @.| U + o                       ",
"                      o + L.oX=XJ.j ;.2.G d d s.V.V.s.s s G 2.;.j J.&XoXL.+ o                       ",
"                        o P ~ ( L : C -.R K v 4.7.7.4.A K R -.C 5 L ( ~ P O                         ",
"                          % o o o o z &.<.>.V V M B B &.>.,.&.z o o o o %                           ",
"                                O o - 7 &.=.<.,.<.<.<.<.=.&.7 - o +                                 ",
"                                # * * - z C ;.;.;.;.;.;.C z - * * #                                 ",
"                              o 2 g u 4 + + + + + + + + $ + 4 u s 3 o                               ",
"                              o 3 g p u < * o % o o % o * < u p g 2 o                               ",
"                              o 2 f f a y 1 o         o 1 y a s s 2 o                               ",
"                                ; = = = * @             @ * = = = ;                                 ",
"                                  o o o o o             o o o o o                                   ",
"                                                                                                    ",
"                                                                                                    ",
"                                                                                                    ",
"                                                                                                    ",
"                                                                                                    ",
"                                                                                                    "
};
