/* XPM */
static char *_5e4da0cadf947bfff9063d0829b0683vqoPOilxmJRS648W[] = {
/* columns rows colors chars-per-pixel */
"50 50 29 1 ",
"  c None",
". c #567B44",
"X c #587D45",
"o c #597E45",
"O c #5A7F45",
"+ c #597E46",
"@ c #5B7F46",
"# c #5B8045",
"$ c #5B8046",
"% c #5B8047",
"& c #5C8146",
"* c #5C8047",
"= c #5D8246",
"- c #5D8148",
"; c #5C8049",
": c #5D8149",
"> c #5E8149",
", c #5F8348",
"< c #5E814A",
"1 c #5F824B",
"2 c #5F824C",
"3 c #608547",
"4 c #608348",
"5 c #61844C",
"6 c #6D8F52",
"7 c #7E9A5D",
"8 c #85A05F",
"9 c #9AAE6F",
"0 c #AEBE79",
/* pixels */
"                                                  ",
"                        5                         ",
"                        ::                        ",
"                        %:                        ",
"                        %%                        ",
"                       2%%                        ",
"                       &OO:                       ",
"                       &##&                       ",
"                      &%&3o@                      ",
"                      @o33o@                      ",
"                      oo3#&&                      ",
"                     &.&&3Oo4                     ",
"                     %.o3%.%%                     ",
"                     :&.&OO&:                     ",
"                    o.O&#&%.o:                    ",
"                    &O.#3&.o%2                    ",
"                    :&O.&OO&O&                    ",
"                    %.%OO&&..o                    ",
" ::                 :o.&,&..&:                 :: ",
"  o::              5o&o.#O.&o:               :&&  ",
"   &o&:4           :%.&.o&&o.&            4:o%&   ",
"   :&&&@::          &oo&33..&:          ::@&&&:   ",
"    @&3&.@::        &&o.3o.&o&        ::&oo3&@    ",
"    &o&3ooo@:       :.&oo&&..:       :ooo@3&%&    ",
"     :oo&oooo%      :&o&3&.o&:      %oooo&oo%     ",
"     :oo&3%.oo&:    ooo.3oo&.&    ::oo.&3&@o:     ",
"      :ooo&oooo&    :o&o&&&.&:   5&oo%o&ooo:      ",
"      :ooo&3&.oo&   :&oo3&o&o:   @@o.&3&ooo2      ",
"       5:...O#OOo&: :o&o&&&o&5 :ooo&&o.o.:5       ",
"        :ooo&&&Ooo&  &o&&&o&@  &OOo&&&ooo:        ",
"         4ooO.%&o@o:4@&o3&&&&5:oOO&&oooo:         ",
"          :&#OO&&oo&:3&&&3o@::ooO&&oo@::          ",
"           4@oo%&3&o&34@3&&&:&o&3&OOo&2           ",
"             :ooo&3&o3&&&3oo3&&3#OOO%             ",
"              :&&o&3&&&o3O@&&&3&&oo:              ",
"               :o&o&3&&&&3&&&3&@o&5               ",
"                 :4@&3&&3&O#3&&@:                 ",
"          4::::::&:&O@3&3&&&O#&&:::&::4:          ",
"       5:ooooooo###&&#o&33&OO&##@ooOoooOo:5       ",
"    2:&&&:o&&o&&&#&3&&&3663&&&3&&&&&o%o&&&&&:2    ",
"    5:&&&%oo@oooo&oo&&4&87&4:@&oooo%oooo&&&&:5    ",
"        :&:oo@o&o&:45:&&09&&43::&&oo&o%:::        ",
"                    :&&:  :&@:                    ",
"                   :&o@    &&o:                   ",
"                  :o%o2    4o@o:                  ",
"                 5o&o5      :&o&                  ",
"                 :@&5        :o%:                 ",
"                 &&            %&                 ",
"                :5              35                ",
"                                                  "
};
