/* XPM */
static char *_047f45a634c4e25b65476d223770536QZwSHBIlIPwwA5A9[] = {
/* columns rows colors chars-per-pixel */
"50 50 256 2 ",
"   c #0259BA",
".  c #0566BC",
"X  c #0773BA",
"o  c #1576AF",
"O  c #1770A5",
"+  c #056BC7",
"@  c #0776C9",
"#  c #137BCB",
"$  c #0677D6",
"%  c #197ED9",
"&  c #036ED8",
"*  c #0E7BE1",
"=  c #3082B9",
"-  c #579AB5",
";  c #0A83CE",
":  c #1A88C9",
">  c #0B85DC",
",  c #0B8CDB",
"<  c #0786D6",
"1  c #138ADA",
"2  c #1B8CDB",
"3  c #1686D6",
"4  c #0892DD",
"5  c #1794DB",
"6  c #199CCA",
"7  c #2589C9",
"8  c #3998CC",
"9  c #248BD9",
"0  c #328BD3",
"q  c #2392DC",
"w  c #2A98D9",
"e  c #349CDD",
"r  c #379ADA",
"t  c #2A93CA",
"y  c #36A3DD",
"u  c #2FA9DE",
"i  c #0B8BE4",
"p  c #0688E7",
"a  c #158AE5",
"s  c #0B93E3",
"d  c #0997E8",
"f  c #1D9AE3",
"g  c #1595EB",
"h  c #1A97E8",
"j  c #189AF2",
"k  c #1394F2",
"l  c #2C9BE3",
"z  c #249DEB",
"x  c #2A9DEB",
"c  c #2597E6",
"v  c #349CE3",
"b  c #3A9DE5",
"n  c #379BE9",
"m  c #249BF4",
"M  c #2C96EA",
"N  c #18A2E9",
"B  c #18A7F3",
"V  c #0FADEF",
"C  c #2DA2E3",
"Z  c #24A3EB",
"A  c #2AA4ED",
"S  c #2CAAED",
"D  c #26A7E7",
"F  c #34A3E5",
"G  c #3BA4E5",
"H  c #33A4EB",
"J  c #3AA5ED",
"K  c #35ABEB",
"L  c #3CACEC",
"P  c #39AAE5",
"I  c #3BB4ED",
"U  c #2CA5F3",
"Y  c #2BABF4",
"T  c #26A9F7",
"R  c #32A3F2",
"E  c #34ACF4",
"W  c #3BACF3",
"Q  c #3AA9F8",
"!  c #3CB4F3",
"~  c #38B5F8",
"^  c #2CB2F4",
"/  c #489ED8",
"(  c #4493CA",
")  c #48A7D8",
"_  c #52AED7",
"`  c #68B4DB",
"'  c #6AADD6",
"]  c #439DE3",
"[  c #44ABE5",
"{  c #4AAAE5",
"}  c #45A3EC",
"|  c #44ACED",
" . c #4BADEC",
".. c #46A4E6",
"X. c #56ACE6",
"o. c #44B2ED",
"O. c #4CB3ED",
"+. c #4BB8E7",
"@. c #53B4ED",
"#. c #55BAEC",
"$. c #5DBCEC",
"%. c #59B5E7",
"&. c #44ACF3",
"*. c #4BADF3",
"=. c #48A8F7",
"-. c #44B4F4",
";. c #4BB4F3",
":. c #4BBBF4",
">. c #43B4FA",
",. c #44BCFB",
"<. c #4BBCFB",
"1. c #47B6F7",
"2. c #54B4F3",
"3. c #5AB6F2",
"4. c #53BBF4",
"5. c #5BBBF4",
"6. c #53BCFB",
"7. c #5BBCFA",
"8. c #55B5FB",
"9. c #52ADF3",
"0. c #64BAE4",
"q. c #67B7EA",
"w. c #74BAE8",
"e. c #63BCF5",
"r. c #66BBF7",
"t. c #71B6EF",
"y. c #3DC1F9",
"u. c #78C6DB",
"i. c #62C0DC",
"p. c #59C4EB",
"a. c #4CC2FD",
"s. c #48C3F9",
"d. c #54C3F4",
"f. c #5CC3F4",
"g. c #54C3FC",
"h. c #5BC4FB",
"j. c #55CBFD",
"k. c #5CCBFC",
"l. c #53CAF6",
"z. c #5BD6FF",
"x. c #64C2EC",
"c. c #6BC3EA",
"v. c #69C8E8",
"b. c #74C4ED",
"n. c #78C8E8",
"m. c #63C3F5",
"M. c #6CC4F4",
"N. c #65CCF5",
"B. c #6DCCF5",
"V. c #64C3FA",
"C. c #6CC5FB",
"Z. c #65CBFC",
"A. c #6CCBFC",
"S. c #73C4F4",
"D. c #74CBF4",
"F. c #7CCCF4",
"G. c #74C4F9",
"H. c #73CCFC",
"J. c #7BCDFC",
"K. c #7BC5F7",
"L. c #6DD3FE",
"P. c #62D6F9",
"I. c #7CD2F5",
"U. c #74D3FD",
"Y. c #7BD3FC",
"T. c #72DBFD",
"R. c #7CDBFB",
"E. c #78D4F4",
"W. c #7ED2EE",
"Q. c #74E1F8",
"!. c #93BFDC",
"~. c #86C5DC",
"^. c #97D0DA",
"/. c #AAD6DE",
"(. c #84CCED",
"). c #89CCE9",
"_. c #86D1EE",
"`. c #8BD4E9",
"'. c #95D3EC",
"]. c #9AD7EA",
"[. c #82CDF4",
"{. c #8ACEF3",
"}. c #82CBFA",
"|. c #84D3F4",
" X c #8BD4F4",
".X c #8CDBF5",
"XX c #83D4FB",
"oX c #8BD5FB",
"OX c #84DAFD",
"+X c #8CDAFC",
"@X c #85DBF2",
"#X c #92D4F5",
"$X c #95DBF4",
"%X c #9BDCF4",
"&X c #94D6FB",
"*X c #94DCFC",
"=X c #9BDDFC",
"-X c #99D7F4",
";X c #94CCEC",
":X c #A7DAEC",
">X c #B4DAE9",
",X c #A3DCF4",
"<X c #ABDEF3",
"1X c #A5DEFA",
"2X c #A9DEFA",
"3X c #ABD3EF",
"4X c #8DE4FE",
"5X c #85E5FB",
"6X c #9CE4F5",
"7X c #95E2FC",
"8X c #9CE3FD",
"9X c #9CECFE",
"0X c #94E7F9",
"qX c #9FE6EC",
"wX c #AAE3ED",
"eX c #B8E5EA",
"rX c #A3E4F5",
"tX c #ACE4F4",
"yX c #A4E3FC",
"uX c #ABE4FC",
"iX c #ABEBFC",
"pX c #A3EBFB",
"aX c #B4E5F3",
"sX c #B2E8F7",
"dX c #BBEDF4",
"fX c #B4E5FB",
"gX c #B4ECFC",
"hX c #BAEBFC",
"jX c #BAE5F7",
"kX c #ACF5FC",
"lX c #B5F3FF",
"zX c #BCF3FE",
"xX c #BBF9FF",
"cX c #CAD9D1",
"vX c #C8E7EB",
"bX c #CBEBF2",
"nX c #CBEDF9",
"mX c #C3EBF7",
"MX c #C3F2FC",
"NX c #CBF4FC",
"BX c #C8F6F9",
"VX c #D3F3F6",
"CX c #D3F4FC",
"ZX c #DBF5FC",
"AX c #D5FBFC",
"SX c #DCFCFE",
"DX c #D8FAF5",
"FX c #D8EDF1",
"GX c #E3FCFD",
"HX c #ECFCFC",
"JX c #E2F7F5",
"KX c #F3FEFD",
"LX c #FBFCFB",
"PX c #F1FCF6",
"IX c #FAFCEF",
"UX c #C8DBEC",
/* pixels */
"6XPXc.yXHXtX7Xw.7.d.<.$Xx.Q %.F I o.E.@Xv ].-.m =X .m V.:.$.1.5XrXVX1 9XIX+XB.vXn l -XZ.M.J B.*.R.s.",
"h rXT %XgXk.s.O.C.jX/.b 8 CX:X2.J a ~ K h.U.KXw ].;.) h.<.< <.n.8XXXg.~.a.U.8.*.h.v.S.FXj.1.U.o.}.2.",
"lXN.SXgX6XyXB.V.D.ZXpX7 jXjX, 9 OXhXH.M.<.0Xe.LXE Y B.Q R >Xz *.<Xr.*X8XD.G U.tX4.J e.{ b., 1 Q 0X! ",
"dX].6.|.J.7.V.S  X9X+XSX2X+Xm OX>.G [ 8.` ;.@.,.h.,.B.lXOXGX9XHX; >.aX&.H F.4Xh.m.yXyXW f.7.R.Z.e U.",
"DXx.=XdXXXVXe.SXn aX=XJX2Xf W Y.<.oX7.h sX4Xl O bXH.7Xv.@.yXE.0X{.z G.M MX# 6XoX>.:X#.NX%X%.O.pX-.@X",
"3Xp..X8X2 GXOX3.U.0.-.n '.3 ).yXZ.2X; E.8XvXs.rXdX Xg.J.5.p.*XY.:Xd.uXH.yX# M.5.A.yXK.a.fXU.m.J.T y ",
"e $XmX;.}.r.+XdXOX{  XyX=.bXI.:.0 VXg.l NX&.m.HX6.].i.].@.pXNXAXA.X.KXG.}  XhX8X$XuX+XiX>.s GX;.7X=X",
"g.e.0.NXZ.o.h K.9.& V.& w +.XXJ.8Xq #.f hX~ S..XZ { eXcX@.+X<.0.,XwXKXb i.mXoXA.*.E.Y.].#XyX*X+ G s.",
"o.F.< d < z 4.s.j.@ ,XFXf 6.`._ MX_.o b :.XX-.~ pXuXNXR.3 8XK dX%Xf.e.r 6XR =XvXL.l.KX.X{.d.Q C.<.3X",
"tX+X$ @.bXN.a.iXU.yXr.}.8.&.c ;..XOX8XV.LX;.c l b.wXC +XJ oXZ.5.kX3.=Xw OXH.l P.I.,.{.LX$XiXgXXXpXf ",
"@ OXJ.Q C ,.(.:.D.J.A } VXH.5.e.z A 5X XZ.8Xf.x B G *.K 4XzX4X8Xh 5 *X;.$Xe _ , 7.ZXT.I.1XI p.c c ,.",
"T.b 7X<.:.w.<.8XXX|.M XXNX0.rXDXX.=X[.j I.:X:.|.g N.LXB.[ %X9 A.8XsXGXK F.*XyXuXaX'.l.j.7.L FXN e S ",
"T.I 0X! 0Xj 7X;.! lX*XH -.q.g._ >XT ;.@.bXO.%.+XyX; K.1Xa.5XSX{.r >XN.Z Y.>.I.8XZ N.+XpX:.^.v.k.f.P ",
":.=X&.W V.C NXVXhXa R.+ eXU.} 3Xr s XXK.P I.O.iXV.W [ ;XM.s I.< oXB.f yXAXS.@XhX^.*XoXS.z `.K xXwX5X",
"D R.h.Y.OXa.[ N B &XV.> M @X} n r ! # T ! s.,.D.MXU.G.uXAX0 %X%Xr.#.} MXhX<.<.$ 3 yX@..XfXP x.c.b 0X",
"JX% C.d.;Xl.u., >.w   L.s 3 ZX).k T D A.$ 4.&XJ.L.wXZ.OX9XOX*XbXb h.o ;.CX%.N.k.C.6.#X' H.m.D.@.tXP ",
"D.k.) Y.&.g ,.vXK *X6.Z.B + =Xj.fXN u + &X,X9 G.U.S.A =.z X.k MXa.a.oXCXR.4Xl.p.oX6XA D z | 7X+XC.NX",
"yXx.@XE Y $   g.U R...*XU.y.p Z T d : p N.].1XP.+XU.m.h.: + I } $X6.Z.1.5.hX~ | s.[.iXv.AXJ.) CXZXoX",
"g.| 6.>.T B A q./.:X=Xj.h.SXfX*X4.z ~ 8 c (.*X2X6XR 8X^ j $ 9 E AXHX[.@.h.6.4.; E.{ &X*XB kXl 7Xl ( ",
"6.NX, T.+ D c ] [._ @ B g.i P.I.AXGXM.I.oXxXf.} iXGX7 < ~ $ r SXo.0X$ 4.A.F.< S Q M.[ )   ; e 7.{.r.",
";.d.g uXC.W H tX.Xz.:.`.L.* I.3.>.}.0XyXrX&XbXF.6Xe I 2 %X..dX8XVX5 a.].% J R.g 8Xt P #.W B oX1XzXd.",
"(.O., :.T f B 1 C 6.i i 2 e.4 R.R CXW.z U.gXv j D.s.< xXr a f 6.A <.M X.H.x 2XSXH.T.R a Y.A.d.6XM.rX",
"Y.fX;.r.R I s N 9X&.<.( j ~.L.eXH 5 ' ' #.F ..=.eXY.$ S d 1 j.g.p Z g u.H 5XX.A.Z.S.@ E -.pX<.J.z.E.",
"4.D.-.h.].d K (.a.j.V E (.iXS =Xc.4X:.iXU.@ $XS.F {.4.s.! , U 4.6.d.H OXR.6X6.MX+X0XuXT V.:.&.l %X%.",
"B.B XXf p j.g.~ :.>.j 2 b.B.Q R J w.9X:.V.,.Q w.g.bXj.t. X;.OXk.c g [.$XE (. X*.,X# g.{.K oXl H.T.oX",
"E + ! y.gX<.g.J.& N d j.9XX.T a p.}.wXzXD.d.+.~ x { 1 C.R g.q L.T q 7X^ .Xf.i SX%.&XM j.! MXiXo.MX&X",
"2 *X<.+X*XG AXaXfX2X&.CX:.<._.c Y.+Xm.mX' Z.u.W.uX{ h.P.@ 3 2.&X-.uXt.:XH P {.*XpXaXh.:XR aXp.: 2.D.",
"R (.L R C 0.@ % OXuX..|.OXGXh.Z.iX( x 8.H.J.LX&.XXo.UX> z B r.` F.} 0X: 5.GXbXyX X@.O.! < S.Y.sX` 6X",
"&XiXE T.oXf.{.LXvXfXvXm.X.*Xh.&.-._.B.M.j M w.).HX*Xo.Y j 8 4.:.r.3.gXOX|.tXD.*Xh.q *X'.3 Z.-.7.|.sX",
"&.oXZ.OX.X=X*.jXgXh.hX4.U zX~ l T wXhXd.5XU.) D.F., Y.E $ @X5.uXf.g U.:X{.@.nXOXW nXAX_ yXh.G.r N.U ",
"Y.XXC.W o.$.`.|.{.3.5 ' GXt., d A.r.N.5 ) M.SXa.r.B.G ).< oXt.bXiXB.yX7X7XOXiXXXXX>X%Xq 8X'.l.;.[ 8X",
"g e.8./ 1.4X].[._ n A.J.@.XX~ l c.s $.;.+.rXL.m..XHXB.I ;XdX&Xt.8.+XVXhXF Y.fXLXH.q.>.8.mX$.{ ;.h D.",
"$ U N.N g.M.J.C.+XtXc I 0 F.K h.~ Y }.+XfXzX1 fX3.6.&.ZX#XoX&XgXh.S.d.V }.r.U. X&.D.XXBX5 & 7.d k.1.",
"Z.f + Q N.XXb.uXSX;.G.f oX&.c +.] < c q.Q.(.<X%X3 Z 0.< LXJ.*.;.ZXR.AX` fX> -.0.&Xb.x.b.m.O.x.aX1 *X",
"~ Z E X *.Z.@.a.M.Y.L c 5.+ D.~ hXN I.> A.q Y.G I SXsXH.hX{ @.L XXZ.9Xr | q bX6.:XXXI O.} oXpX7Xj.{ ",
"Y.P r.OX9  .j I.Q :.C.N.0Xo.D.B + 6.k J 9Xr.$ I.JX=X,X- XXK B.DXn.$X~.R.tXY.SXhXdXMXNXP ,X^ J.'.8 Z.",
"H.l I V.iX>.NXW.V g wXx ` h.$ i -.i > %.G b.*XH.XX+X!.wXn [ +XF.$.%XD.CXzX8XH.|.N.1 2.1 : 5 #.r./ 7X",
"; D.Q 5XkXLXp @ 5XoX[.s A NXD.:X7.Z , B r.;.0 OX&.4.D. X}.3 Y p.Y.e.m.AX=XgXM.$X2 + g.3.jXa.8.G dX*.",
"g.KX-.L L.X.eXy h 0.&.g.-.8X-X;XQ 0 d A f.=.O.Y r.q.C.$.h o e.[.V.XX*XxXuXHX*X5.uXJ b.ZXO.4.e z s.C.",
"h.x < $ C F P n.W : G 5.^.%X> 7.H ! *X,.m ! <.f 4X` |.@.q.e 5.,X=XsX{ e.rXHXm.K 2.q.FX/ xXC.F.ZXmXb.",
"uX0.i C & cX#.C.I 1.J C ` 3.s @ -.$ 8 v.U.K p XXg.3 X.k.S..X7 f W `.fX< q K 0.J.t.h.q.5.I.c.m.} |.R.",
"sXF.F n B &Xc.:.qX:.Y ;X).W p C.0.S j.x.A.O. XuX7 j.+.G M.Q 3.L.[ Z.XX: M.o._.J.z A.yXq.R.xXoX<XF XX",
"> ) JXG.h ;.F.~.K ~ # g.;.eXw 5.|.vX+ ).R.H <X~ / oX3.8 d.X I.n E 2.XXb.Z _.g.F.: HXM.q.5.#XG.G Z.c.",
"6 8X@.5.| KX:.o H.,.i 7.> ;.6.A.CXHX{.dXv..XL gX+.#.|.{.$ lXc.U F.eXA.zX9 X C.c.: m.O.} Z.U.h.MXB.v ",
"R p nXyXM.Z.-.i # w./ 3 7.gX$ @.U.PX .$Xv f 7.v oXJ.U.Y.M.sX@.$.! J R.`.v.  =XpX{.q 3 $.zXiXb.rX#.*X",
"U ) h ..q Y.l D.1.I.+X XH.e ! K 5 l w E.U.&.2 C.hXs H E.GXq w =XwX<XJ.R.< SXoX. 5.P *.F.MXw.7XC.AX#.",
"+ HXK K M K.+XG }  XB.1.NXy sX$.w ^ C 5 R.&X|.].U.L.U w.AXI.yX{ y LX%XW.w uXY.5 3 { f # &X@ G.n.&.w.",
"f.C.z pXv.L.Y.e <.n 5 <X7X-.# | pXi S #.2.nX6.e 9 j.4.p 7 -X XXXe.U.2.H.7.9 v Y.d.mXg.I %.C.B.r. X@ ",
"! Z.H.K.L.5 ZXKX2.-.W OX+X$X# N.3.>XMXGX_.Z.=X:.Z.1.CX(.=Xq.#X7.}.n.E.1.O.D.j.;.9 I.A.A.@ Z G 5.@ =X",
"8 f.Z.XX/ 5 F LXV B @...=XV.W $.GXB.dXF.{ C.9 k.V.+.] oXbXLXm.FXjXK.CX5.| X.rXt.n.O #.0.A.hX| x.r.^."
};
