/* XPM */
static char *player_up_door1673654230[] = {
/* columns rows colors chars-per-pixel */
"50 50 195 2 ",
"   c black",
".  c #010000",
"X  c #000100",
"o  c #000002",
"O  c #000120",
"+  c #000022",
"@  c #000122",
"#  c #020650",
"$  c #000652",
"%  c #000074",
"&  c #000174",
"*  c #0054AC",
"=  c #003ADA",
"-  c #003BDA",
";  c #013BDB",
":  c #003CDA",
">  c #003CDB",
",  c #003BDD",
"<  c #013DDC",
"1  c #003CDD",
"2  c #005FE1",
"3  c #005EE2",
"4  c #005CEB",
"5  c #005CED",
"6  c #0062E4",
"7  c #0063E4",
"8  c #0162E5",
"9  c #0063E5",
"0  c #0061E6",
"q  c #0062E7",
"w  c #0164E6",
"e  c #0066E7",
"r  c #0067E8",
"t  c #0067EA",
"y  c #0C64E9",
"u  c #0D65EA",
"i  c #019EEB",
"p  c #00B2EA",
"a  c #00B3EB",
"s  c #02B2EB",
"d  c #00B4E9",
"f  c #00B5EA",
"g  c #01B5EA",
"h  c #00B4EB",
"j  c #28B8ED",
"k  c #28BAED",
"l  c #29B9EE",
"z  c #4DB0F4",
"x  c #4CB1F5",
"c  c #4EB1F4",
"v  c #4FB0F5",
"b  c #4EB1F5",
"n  c #4EB0F7",
"m  c #4FB2F6",
"M  c #12DBEB",
"N  c #12DCEA",
"B  c #12DBED",
"V  c #00E5EB",
"C  c #00E6EC",
"Z  c #5BC7F6",
"A  c #5CC6F6",
"S  c #5DC7F7",
"D  c #5DC8F6",
"F  c #5CC8F7",
"G  c #5EC9F7",
"H  c #5DC7F9",
"J  c #5CC8F9",
"K  c #5EC8F8",
"L  c #55E5FD",
"P  c #57E5FD",
"I  c #56E7FC",
"U  c #57E4FF",
"Y  c #56E6FE",
"T  c #56E6FF",
"R  c #57E7FF",
"E  c #59E5FC",
"W  c #58E4FD",
"Q  c #58E6FC",
"!  c #59E5FE",
"~  c #58E5FF",
"^  c #58E6FE",
"/  c #59E6FF",
"(  c #59E7FF",
")  c #5AE6FF",
"_  c #63EDEF",
"`  c #62EEEF",
"'  c #63EDF0",
"]  c #6AE9F2",
"[  c #96C2F3",
"{  c #97C2F5",
"}  c #96C4F6",
"|  c #98C1F5",
" . c #98C3F6",
".. c #8BEDEE",
"X. c #8DECEE",
"o. c #8EEDEF",
"O. c #86EDFC",
"+. c #87EEFD",
"@. c #8EEDFF",
"#. c #8FEEFF",
"$. c #8FEFFF",
"%. c #C9EDF9",
"&. c #C9EDFB",
"*. c #C9EFFA",
"=. c #CAEEFA",
"-. c #CCEEFA",
";. c #C9EFFC",
":. c #CAEEFC",
">. c #CBEFFD",
",. c #CAEEFE",
"<. c #CBEFFF",
"1. c #CCEDFC",
"2. c #CDEEFD",
"3. c #D6F3F9",
"4. c #D6F3FB",
"5. c #D7F4FA",
"6. c #D6F5FA",
"7. c #D6F2FD",
"8. c #D7F3FE",
"9. c #D6F4FC",
"0. c #D7F4FC",
"q. c #D7F5FF",
"w. c #D8F3FC",
"e. c #D9F4FD",
"r. c #D8F5FD",
"t. c #DFFBFF",
"y. c #E1E5E8",
"u. c #E3E4E8",
"i. c #E4E5E9",
"p. c #E6E7EB",
"a. c #E4E7EC",
"s. c #E4E8E9",
"d. c #E4E8EB",
"f. c #E7E8EA",
"g. c #E6EAEB",
"h. c #E5E9EC",
"j. c #E5E8ED",
"k. c #E5EAED",
"l. c #E6EAED",
"z. c #E6E9EE",
"x. c #E7EBEE",
"c. c #E8E9EB",
"v. c #E8E9ED",
"b. c #EBEDEC",
"n. c #EBECEE",
"m. c #EAEEEF",
"M. c gray93",
"N. c #ECEEED",
"B. c #ECEDEF",
"V. c #EDEDEF",
"C. c #EDEFEE",
"Z. c #EEEEEE",
"A. c #E9EDF0",
"S. c #EAEEF1",
"D. c #EBEFF2",
"F. c #ECEDF1",
"G. c #EDEEF0",
"H. c #EEEEF0",
"J. c #EEEFF1",
"K. c #EFEFF1",
"L. c #EDEEF2",
"P. c #EFF0F2",
"I. c #E0F9FE",
"U. c #E2F9FF",
"Y. c #E1FAFE",
"T. c #E1FAFF",
"R. c #E2FBFF",
"E. c #EDFBFE",
"W. c #EFFAFE",
"Q. c #EEFCFF",
"!. c gray94",
"~. c #F0F0F2",
"^. c #F0F1F3",
"/. c #F1F3F2",
"(. c #F1F2F4",
"). c #F5F6F8",
"_. c #F0FBFD",
"`. c #F1FAFF",
"'. c #F0FBFF",
"]. c #F2FBFF",
"[. c #F6FBFE",
"{. c #F7FAFF",
"}. c #F6FBFF",
"|. c #F1FCFE",
" X c #F1FCFF",
".X c #F4FCFF",
"XX c #F7FCFF",
"oX c #FBFBFB",
"OX c #FAFAFC",
"+X c #FBFBFD",
"@X c #FBFAFF",
"#X c #FCFAFD",
"$X c #FFFEFF",
"%X c #FEFFFF",
"&X c white",
/* pixels */
"B.B.B.b.G.l.a.E R W E E R E R E R R E R R E R R E R R E R ( E R ( E R E R E R E R R G.G.G.B.B.G.B.B.",
"G.B.B.l.l.a.l.E E R E R R E E R E E R E E R E E E E E R E R E R R E E R R R E R E E G.G.B.B.G.G.B.B.",
"B.B.B.B.G.l.l.E R R R E E R R E E E E R E E E E R R E E ( E R E E ( R E R R E E E R G.G.B.G.G.B.G.B.",
"l.B.G.b.F.G.l.R E R E E R E E R R R E 0 7 0 r 0 7 q 0 q 7 q E R R E E E R E R W R E G.B.B.G.G.B.B.B.",
"l.F.l.b.l.l.l.R E R R +.R.R.R.R.R.q 0 F F F H S F S H H J J 0 7 R.T.R.R.R.T.E R E E F.l.b.l.B.B.F.l.",
"l.l.l.l.l.F.G.E R R E @.{ y 4 g 0 H H  X_._._.H F S _._._._.F J 0 _ X.l M .XR E E R l.a.l.l.G.l.l.l.",
"b.l.a.F.b.l.l.R R W E @.{ y 3 7 F S S _._._._._.F _._._._..XS F S 0 3 l M .XE R R E a.s.l.b.l.l.l.l.",
"l.F.l.l.l.l.F.E E R E @.{ 3 0 F H _.S  X_._._._._._._._.&X_.H _.S F 0 3 M .XE R E R a.s.l.l.x.a.l.b.",
"l.n.l.l.n.g.l.R E R E @. .7 F w._._.Q.H _._. XOX#X#XOX X&XS _._._.e.J 7 6 .XR E E W n.l.l.B.l.l.l.B.",
"l.l.a.a.M.l.l.E R E E @.3 0 K w._._._._._. XOX#X+X+XOX_.&X&X_._._.w.S 0 S 3 E E E E F.G.l.B.l.l.B.B.",
"l.a.s.G.l.l.l.W R R E @.0 F 8.0._._._._. X_.#X+X+XOX_._.&X&X_.J Q.F J 0 6 S 3 E R E l.l.B.l.l.a.~.l.",
"a.G.b.l.F.G.n.R W R E 6 7 F F S _.H _._._._._._. X_._.&X&X_._._. Xw.F S 0 O O O R R l.l.l.l.l.l.B.a.",
"l.n.G.G.G.G.~.E E R R 3 0 S S 5._._._._._._._._._. X X_._._._._._.8.5.S 0 O R W R W l.a.g.l.l.M.n.u.",
"G.G.F.b.G.G.G.W R R E O 0 S 0.0.e._.W._._._._._._._._._._._._._.r.4.0.S 0 O R R R R u.a.a.u.g.l.a.G.",
"l.n.G.G.G.G.G.R W R E O 7 F r.5.0._.H W._._._._._._. X_._._._._.4.r.r.F 7 O E E W R l.g.a.g.l.B.l.l.",
"n.G.n.n.G.F.G.R R W W O 7 F S w.0.8.J W._.W._._._._._.Q._._._.0.8.r.S J 0 + R E R R l.g.a.g.G.B.B.G.",
"G.G.G.l.l.l.G.R R E E r 7 F S H 0.0.0.J _._._._._._.J _._.0.0.0.5.F S F 7 < R E R E a.a.a.B.B.B.G.G.",
"G.l.l.l.B.B.B.E E E 1 c t 0 S F e.4.4.e.0.0.H _._._.Z 0.0.0.0.r.w.S S 0 r t < R E R u.y.a.l.c.B.G.b.",
"G.l.B.G.G.G.P.R R R < oXv 7 F F J 0.0.8.r.0.0.r.0.0.0.8.0.0.0.0.S S F 0 c &.< E E E a.u.g.l.l.G.G.(.",
"G.l.G.G.B.G.P.R R E . &Xv < 0 F S S 0.0.0.0.0.0.0.0.H 0.0.0.0.J F S 6 < z &.. R E E u.a.a.l.G.G.G.F.",
"B.G.B.G.G.P.P.R E R . ,.c 1 7 F w.0.8.5.0.0.4.0.0.r.0.0.0.0.0.8.r.S 0 < c c . E E R l.a.l.l.l.G.l.l.",
"a.G.B.B.G.b.P.E R R R . 7 < 7 J 5.0.4.8.0.5.e.0.0.5.4.0.8.0.0.0.r.F 0 1 r . R R E E l.l.g.a.l.l.n.n.",
"B.F.B.G.G.F.G.E R E R @.. . t 7 S 5.0.S 0.0.0.0.0.0.0.S S 0.0.0.S 0 r . . .XE R R E l.l.g.G.B.n.G.b.",
"!.F.G.b.G.P.P.R E E E @.} . t 7 S S S 5.0.0.S S S S 0.0.0.4.H Z H 7 r . M .XR R R R G.l.l.l.G.n.G.G.",
"B.B.B.B.B.B.P.( E R E @. .y . 7 S S S 0.S S 5.w.0.0.w.F w.w.F S F 7 . l M .XR R E E g.a.l.F.G.B.F.G.",
"B.B.B.B.B.P.G.E R E R @.[ y . t 0 S S H 0.0.F F J S J 4.F S S S 0 r . k B .XE E R R b.b.N.B.B.B.G.n.",
"B.B.B.P.!.F.F.R E R E $.{ y 4 . O 7 H S S S w.w.r.e.4.S S F S 0 O . X.l M .XE R E R a.a.b.G.G.B.n.n.",
"B.P.P.P.P.P.(.E R E ( @.{ y 4 p . O r c c S F J S S S S c c < O . _ X.l M OXE E R E g.a.s.F.B.G.G.G.",
"G.G.P.P.P.(.).( R E R @.{ y < < 1 < . . t r c c c c c t r . . 1 < < < l M .XE R E R a.B.B.B.!.P.G.G.",
"B.G.G.P.P.(.).( E R E @.{ < c 1.,.c c c . . . t t t . . . c c c &.&.z < M .XR E R E l.B.B.B.B.B.G.G.",
"B.B.B.B.G.(.(.R R E E @.< c &.+X+Xc ,.,.,.,.c c c c c ,.&.,.1.c +X#X,.c - .XE R R E B.B.B.B.G.G.G.G.",
"B.G.B.G.G.(.!.R E E E @.< c ,.oX+Xc &.&.+X+X>.&.,.>.&.+X+X,.,.c #X#X&.n , OXR E R E B.l.B.G.B.n.G.G.",
"G.b.G.F.G.(.!.R R E R @.- m >.,.c t -.,.oX+X&.>.&.,.&.&X#X,.*.t c >.>.c - .XE E R E l.G.G.n.G.M.n.n.",
"G.F.G.b.G.P.G.E E R E @.< 7 c x c . c ,.&.&.>.&.c >.&.&.>.>.c . c c c t < .XE E R R l.n.n.G.F.l.F.F.",
"G.s.l.F.G.b.b.E R R R < c c c c . 1 t c c &.-.,.c >.&.,.c c 7 < . c c m c 1 R E E R G.G.F.M.a.l.n.b.",
"l.l.F.b.G.G.G.R E R E < c >.c . V 1 t c >.,.1.>.c 1.*.&.&.c t < h . c ,.c 1 E R R E G.G.l.u.a.b.F.l.",
"F.b.B.B.!.G.F.] E E 1 c ,.,.c . V < 7 c &.>.&.c c c 1.1.>.c t < g . c &.&.z < E R E b.l.a.a.y.g.n.G.",
"F.F.B.G.B.B.G.R R R < c ,.>.c . V < c ,.>.&.>.,.>.,.&.,.&.,.c < h . c >.>.c 1 E W R F.F.l.l.g.B.n.G.",
"b.G.G.P.P.G.(.E R E < c *.1 c . V & c &.>.&.&.&.-.,.&.-.*.>.c & g . c 1 >.c < R R R G.G.l.G.B.G.(.n.",
"P.P.G.G.B.B.(.E E R < c c . . h C . c ,.-.>.,.&.&.>.*.,.,.&.c . g ' . . c c 1 E E W b.l.F.G.!.!.G.G.",
"(.(.B.B.F.G.G.E R E E o . . 5 h V - r c ,.- z c c c c , ,.c r , g _ X.. . . R E R E G.G.G.G.G.P.(.(.",
"P.B.B.B.G.G.G.E E W E @.{ y 5 a V i < c c c < < 1 1 1 c c c - * g _ X.l M .XE R E R P.P.G.G.G.G.(.(.",
"B.B.B.B.F.P.G.E R E R @. .y 5 p V i , c ,.,.c < # - c ,.,.c - * g _ X.l M .XE R R E L.G.n.G.F.G.G.(.",
"B.B.B.B.B.b.B.R E R R @. .y 5 a V i < r n c 7 1 # < r c c r - * g _ X.l M .XR E E R P.G.G.G.b.G.G.(.",
"B.G.F.l.a.b.G.E E R E @.| y 4 p V i < c c c c - # , c c c c - * g _ X.l M .XW R R E P.!.G.G.G.G.(.(.",
"B.B.P.B.G.G.F.R R E R O.R.I.R.R.R.R.< c ,.,.c , R.- c ,.,.c < R.R.R.t.R.R.R.W E R E P.G.G.G.G.G.(.G.",
"F.F.b.l.B.B.l.R E R W R R E E R R E E R E E E R E R R R E R E R R E R E E E E R E R (.G.G.G.G.G.G.n.",
"b.P.b.F.l.a.F.R E W R R E R E W R E R E R E E R R E E R R R R E W R E R R E R E R E (.(.n.F.G.G.G.G.",
"P.b.F.b.F.l.F.R E R E R E R E R E R E R E R E R E R E R E R E R E R E R E R E R W R (.G.G.M.G.G.n.G.",
"F.P.F.b.G.l.B.R R E R E R E R E R E R E R E R E R E R E R E R E R E R E R E R E R E (.(.(.(.G.F.G.G."
};
