/* XPM */
static char *_213ea0e52ab4bba8b68db870f554c59cb0bOm7aHbrBzTJL[] = {
/* columns rows colors chars-per-pixel */
"50 50 217 2 ",
"   c #00033E",
".  c #000642",
"X  c #000947",
"o  c #000B4B",
"O  c #000E52",
"+  c #001255",
"@  c #00135C",
"#  c #001C5C",
"$  c #062558",
"%  c #0A235A",
"&  c #00355E",
"*  c #001564",
"=  c #001B65",
"-  c #001669",
";  c #001B6D",
":  c #001E79",
">  c #002469",
",  c #032A69",
"<  c #013664",
"1  c #023A6B",
"2  c #00237D",
"3  c #002A78",
"4  c #003171",
"5  c #00347F",
"6  c #004F76",
"7  c #244F6F",
"8  c #285172",
"9  c #002284",
"0  c #002D83",
"q  c #00248D",
"w  c #00298D",
"e  c #033987",
"r  c #002893",
"t  c #002B9D",
"y  c #033896",
"u  c #00329D",
"i  c #0034A6",
"p  c #0039A4",
"a  c #0034AC",
"s  c #0034B4",
"d  c #033BB3",
"f  c #0036BC",
"g  c #003ABC",
"h  c #174686",
"j  c #015A88",
"k  c #004393",
"l  c #004598",
"z  c #225884",
"x  c #2A5992",
"c  c #007892",
"v  c #0443A9",
"b  c #0055AB",
"n  c #0345B7",
"m  c #0043BB",
"M  c #0056BB",
"N  c #285EA5",
"B  c #0067B1",
"V  c #003CC2",
"C  c #003ECB",
"Z  c #003ED3",
"A  c #0044C5",
"S  c #004CC7",
"D  c #0043CB",
"F  c #0043D5",
"G  c #0044DA",
"H  c #004BDC",
"J  c #0157DA",
"K  c #0064C5",
"L  c #006DCC",
"P  c #0566DB",
"I  c #007CDA",
"U  c #2364C6",
"Y  c #0045E4",
"T  c #004BE5",
"R  c #0047E9",
"E  c #004BE9",
"W  c #0053E2",
"Q  c #0053E9",
"!  c #005CE9",
"~  c #0A59E9",
"^  c #016CE4",
"/  c #0063E9",
"(  c #0866E8",
")  c #016BEA",
"_  c #0B6CEA",
"`  c #1465E8",
"'  c #136CEA",
"]  c #0074EA",
"[  c #0B75EA",
"{  c #017BEA",
"}  c #1578EA",
"|  c #266EE9",
" . c #2276E9",
".. c #2279EA",
"X. c #3C7CE2",
"o. c #5471CB",
"O. c #407CEF",
"+. c #0393A7",
"@. c #3694A8",
"#. c #11A0B3",
"$. c #3DA7BB",
"%. c #0080CB",
"&. c #0086D8",
"*. c #00BACA",
"=. c #00A4D9",
"-. c #0184EA",
";. c #008DEA",
":. c #0A89E9",
">. c #1384EA",
",. c #0193E9",
"<. c #019DEA",
"1. c #1998EA",
"2. c #208CEA",
"3. c #3481E9",
"4. c #2890EA",
"5. c #379FEA",
"6. c #03A7E6",
"7. c #02A4EA",
"8. c #0AA6EA",
"9. c #02AAEA",
"0. c #18A7EB",
"q. c #01B2EA",
"w. c #08B3E9",
"e. c #02BCEA",
"r. c #12B7EA",
"t. c #2AA9EB",
"y. c #3AA6EB",
"u. c #22B4EA",
"i. c #2DB8ED",
"p. c #30B5EA",
"a. c #4385EA",
"s. c #448CEC",
"d. c #489AED",
"f. c #498BF0",
"g. c #42B2EB",
"h. c #78A9EC",
"j. c #6CB8EC",
"k. c #0DC9D3",
"l. c #00D9DF",
"z. c #20CED4",
"x. c #01C2EA",
"c. c #01CBEA",
"v. c #07CBE8",
"b. c #14CFEB",
"n. c #00D4EA",
"m. c #09D6EA",
"M. c #00DBEA",
"N. c #04DCE8",
"B. c #1CD2EB",
"V. c #13DAEA",
"C. c #19DBEB",
"Z. c #2AC2EB",
"A. c #25D8EB",
"S. c #3ADAEC",
"D. c #01E4EA",
"F. c #09E3EB",
"G. c #00E9EA",
"H. c #0CE9EB",
"J. c #14E5EB",
"K. c #19E6EB",
"L. c #14E9EB",
"P. c #1AE9EB",
"I. c #28E6EB",
"U. c #37E6EB",
"Y. c #32EAEC",
"T. c #57CCEC",
"R. c #4CD8EC",
"E. c #59DAEC",
"W. c #64D4EE",
"Q. c #48E7EC",
"!. c #41EAEC",
"~. c #54E3EC",
"^. c #58E5EC",
"/. c #58EAEC",
"(. c #59E5FF",
"). c #54F0F2",
"_. c #64ECED",
"`. c #74E8EC",
"'. c #6AE7F4",
"]. c #7DEBF1",
"[. c #95ADBD",
"{. c #95AEC1",
"}. c #95B6D6",
"|. c #95BAE9",
" X c #95B7F3",
".X c #95BDF5",
"XX c #8DD4EC",
"oX c #92D6E6",
"OX c #95C1F6",
"+X c #96D4F6",
"@X c #B1D9F1",
"#X c #8BEBEE",
"$X c #9AE8EC",
"%X c #84ECFC",
"&X c #8EEDFF",
"*X c #9AF3F5",
"=X c #A7F3ED",
"-X c #AAEEF6",
";X c #A5F5F6",
":X c #B7F4F7",
">X c #C9EBED",
",X c #D8EDF3",
"<X c #C7FAFA",
"1X c #E2E4E7",
"2X c #E4E7E9",
"3X c #E6E9EB",
"4X c #EAECEE",
"5X c #EDEEF0",
"6X c #E8EEF8",
"7X c #FAEEFB",
"8X c #EFF0F2",
"9X c #E0FAFF",
"0X c #ECFDFE",
"qX c #F1F2F4",
"wX c #F4F7FA",
"eX c #F5FBFE",
"rX c #FBFBFE",
/* pixels */
"4X4X4X4X4X3X2X(.(.(.(.(.(.(.(.(.(.(.(.(.(.(.(.(.(.(.(.(.(.(.(.(.(.(.(.(.(.(.(.(.(.(.8X5X5X5X4X5X4X4X",
"4X4X4X3X3X2X3X(.(.(.(.(.(.(.(.(.(.(.(.(.(.(.(.(.(.(.(.(.(.(.(.(.(.(.(.(.(.(.(.(.(.(.5X4X4X4X5X5X4X4X",
"4X4X4X4X4X3X3X(.(.(.(.(.(.(.(.(.(.(.(.(.(.(.(.(.(.(.(.(.(.(.(.(.(.(.(.(.(.(.(.(.(.(.5X4X4X5X8X4X5X4X",
"3X4X4X4X4X4X3X(.(.(.(.(.(.(.(.(.(.(.(.(.(.(.(.(.(.(.(.(.(.(.(.(.(.(.(.(.(.(.(.(.(.(.5X4X4X4X4X4X4X4X",
"3X4X3X4X3X3X3X(.(.(.(.%X9X9X9X9X9X9X9X9X9X9X9X9X9X9X9X9X9X9X9X9X9X9X9X9X9X9X(.(.(.(.4X3X4X3X4X4X4X3X",
"3X3X3X2X3X4X4X(.(.(.(.&X:X5.x 8 8 s.>X_.@.8 8 7 | ...... .z X.S... .N 7 o.eX(.(.(.(.3X2X3X3X4X3X3X3X",
"4X3X2X4X4X3X3X(.(.(.(.&X|.y O   # >.~.0.e . . - v T E E E 0 c n.E D 2 - h eX(.(.(.(.2X2X3X4X3X3X3X3X",
"3X4X3X3X3X3X4X(.(.(.(.&X[.% O O 1 G.c./ q . o R E T F s H 1.I.A.` ! E R ' eX(.(.(.(.1X2X3X3X3X2X3X4X",
"3X4X3X3X4X3X3X(.(.(.(.&X[.$ p g K G.c./ q X + T Y E d > S T.:X:XXXq.{ E ' rX(.(.(.(.3X3X3X4X3X3X3X4X",
"3X3X2X2X4X3X3X(.(.(.(.&X$Xk.oXB.m.<X=XA.I C Z E ; q J =.n.J._.rX<XH.'.O.' wX(.(.(.(.4X4X3X4X3X3X4X4X",
"3X1X2X4X3X3X3X(.(.(.(.&X;XP.P.F.N.3.4X=X^.^.E.^.^ P 9.D.-./ ^ ' :.D.L.8.B.eX(.(.(.(.3X3X4X3X3X3X8X3X",
"2X4X4X3X4X4X4X(.(.(.(.&X;XK.c.L n e s.W.-XrX,XT.w.L M M e 4 4 V Q ;.n.G.Y.eX(.(.(.(.3X3X3X3X3X3X4X1X",
"3X4X5X4X5X5X8X(.(.(.(.&X*Xr.M @   + p %.R.*X/.Q i > # +   . . + s Q 9.G.Y.eX(.(.(.(.3X2X3X3X3X4X3X1X",
"4X5X4X4X5X5X8X(.(.(.(.&X+X_ : X . . + p 9.H.D.E = 2 S y + . . X @ m 9.e.A.eX(.(.(.(.1X2X1X1X3X3X2X4X",
"3X4X4X4X5X5X5X(.(.(.(.&X.X~ F * . . X u 9.G.D.T F G E T D + . . + v j.s.>.eX(.(.(.(.3X2X2X3X3X4X3X3X",
"4X4X4X4X5X4X5X(.(.(.(.&X{., V Y ; . o u y.Y.N.T T s q R E k k e y Q 8.-.' eX(.(.(.(.3X2X1X2X4X4X4X4X",
"5X5X4X3X3X3X4X(.(.(.(.&X}.e F E Y : 0 B Z.B.) 4 , ; i Q ] -.-.-.] ~ t.t.1.eX(.(.(.(.2X1X2X4X4X4X4X8X",
"5X3X3X3X4X4X4X(.(.(.(.&X.X~ E ! ,.,.,.x.G.,.Y . . 9 Q -.n.q.7.q.m.5.@X).P.eX(.(.(.(.1X1X2X3X3X4X5X4X",
"5X3X4X5X5X5X8X(.(.(.(.&XOX` ! q.D.<.<.7.<.] Y @ O w S %.<.b u b w._.#Xi.C.eX(.(.(.(.1X1X3X3X3X8X4XqX",
"5X3X5X5X4X5X8X(.(.(.(.&X-XV.M.D.-.Q Q Q Q E E H F G a > A - . = ~ :.[ Q } eX(.(.(.(.1X2X1X3X4X5X8X4X",
"4X4X4X5X4X8X8X(.(.(.(.&XOX` e.D.D.c.Q E E E Q D.< X > g Y *   * ! -./ R ' eX(.(.(.(.3X1X3X3X3X4X3X3X",
"3X5X4X4X4X4X8X(.(.(.(.&XOX~ / ) ] M.-.Q E ! ,.G.$ . 9 E E t 9 y 7.e./ R ' eX(.(.(.(.3X3X3X1X3X3X3X4X",
"8X5X5X4X5X8X8X(.(.(.(.&XOX~ E R Q 9.M.7.) ' '.`.+.e m C t G E / M.;.Q E ' eX(.(.(.(.4X3X3X3X4X4X5X4X",
"4X4X4X5X4X4X5X(.(.(.(.&X Xd F E E ! 7.L.1.8.].6XQ.x.7.U h J / { c.[ ( ( g.rX(.(.(.(.3X3X3X4X4X4X4X4X",
"4X4X4X4X4X4X8X(.(.(.(.&X[.% f R E E ! j./.D.H.4X>XU.I.@XoXV.M.N.J.E.A.R.<X0X(.(.(.(.2X2X3X4X4X4X4X5X",
"4X4X4X4X5X8X5X(.(.(.(.&X[.# X e Q T Q <.N.l.l.M./ Q E Q J H H H Q Q W 6.U.rX(.(.(.(.4X4X4X4X4X4X4X4X",
"4X4X4X8XqX5X4X(.(.(.(.&X Xd r Z ! <.;.P k & 1 / E Y E v = @ @ 2 E H w M S.eX(.(.(.(.1X2X4X4X5X4X4X4X",
"4X8X8X8X8X8XqX(.(.(.(.&XOX~ ~ R / M.&.e +   o E t s E D t t r i E S B L 0.eX(.(.(.(.2X2X2X4X4X5X4X5X",
"5X5X8X8X8XqXwX(.(.(.(.&X.X~ t Z / n.K >   . o E , y Q / ) / _ | ) 2.S.>.' wX(.(.(.(.2X4X4X4X5X8X8X4X",
"4X5X5X8X8XqXwX(.(.(.(.&X.Xv @ e ! D.*.< o o + E W W ,.N.M.M.S._.C.*X0Xf._ wX(.(.(.(.3X4X4X4X5X5X5X5X",
"4X4X4X4X5XqXqX(.(.(.(.&X[.% f E T ) D.G.,.~ ~ E ^.Q.M.6.J H H E ' oX,Xf.} wX(.(.(.(.4X4X4X4X4X8X4X4X",
"4X5X4X4X5XqXqX(.(.(.(.&X[.% V E / 9.G.G.U.].`.7.F.7.! v # o 3 T A 1 #.e.C.eX(.(.(.(.4X3X4X4X5X4X4X5X",
"4X4X4X4X8XqX8X(.(.(.(.&X}.v G ) w.`.M.<.1.h.6X%Xm.) E i o . O q 9 0 L c.Y.eX(.(.(.(.3X4X4X4X4X4X4X4X",
"4X4X4X4X5X8X5X(.(.(.(.&XOX~ 5.v.F.3.j 5 f ~ d.5X$Xu./ i o .   o 0 H / { 1.eX(.(.(.(.3X4X4X4X4X3X4X4X",
"4X2X3X4X5X4X4X(.(.(.(.&XOX_ T.K.] D o . = C ~ 4X0XQ.q.b # O O ; T ! w.-.' eX(.(.(.(.4X5X4X4X2X3X4X4X",
"3X3X4X4X4X5X5X(.(.(.(.&X;XP.G.P Z F @ . o ; H >X<X!.G.q._ ` ! Q / w.`.a.' eX(.(.(.(.5X5X3X1X1X4X4X3X",
"4X4X5X4X8X4X4X'.(.(.(.&X;XP.c.6 = E V @ 2 F ! H.H.N.x.m.~.`.J.7.q.M.x.{ ' eX(.(.(.(.4X3X2X1X2X3X4X4X",
"4X4X4X5X4X4X4X(.(.(.(.&X;XP.-.n s E H d D / 9.#XF.<./ { 4.4.8.G.n.-./ ,.u.rX(.(.(.(.4X4X3X3X3X4X4X4X",
"4X4X5X8X8X5XqX(.(.(.(.&X;XK.] E E E E E / u.$X7XV.) V : : G l j ) Q E q.Y.eX(.(.(.(.4X4X3X4X4X8X8X4X",
"8X8X8X4X4X4XqX(.(.(.(.&X;XK.] ! / / / _ q.J._._.n.S - X . > + o r E ! e.Y.rX(.(.(.(.4X3X4X4X8X8X5X4X",
"qXqX4X4X4X4X5X(.(.(.(.&X;XK.-.:.L.G.H.`./.N.n.c.S * . X O X   X * u =.M.A.eX(.(.(.(.5X5X5X8X4X8XqXqX",
"8X4X4X4X4X5X5X(.(.(.(.&X;Xb.e.Q.Q.D.x.x.x.-.E Q @ . . o f = o - V < #.-.} eX(.(.(.(.8X8X5X4X4X4XqXqX",
"4X4X4X4X4X8X8X(.(.(.(.&X+X[ ! 0.P.n./ ! / Q E E O     + V g a g P $.z.-.` rX(.(.(.(.8X5X4X4X4X5XqXqX",
"4X4X4X4X4X4X4X(.(.(.(.&X.X~ E Q -.D.9.! E E E E f @ + i Y E ) x.v.K.8.Q ' wX(.(.(.(.8X5X5X5X4X5X5XqX",
"5X5X4X3X3X4X4X(.(.(.(.&X:Xy. . .3.Q.!.p.} ........U N  .....U.Q.!.!.t. .T.rX(.(.(.(.8X8X8X5X5X5XqX8X",
"4X4X4X4X4X4X4X(.(.(.(.%X9X9X9X9X9X9X9X9X9X9X9X9X9X9X9X9X9X9X9X9X9X9X9X9X9X9X(.(.(.(.8X5X5X5X4X5XqX8X",
"4X4X4X3X4X4X3X(.(.(.(.(.(.(.(.(.(.(.(.(.(.(.(.(.(.(.(.(.(.(.(.(.(.(.(.(.(.(.(.(.(.(.qX8X5X5X5X4X4X4X",
"4X5X4X4X3X3X4X(.(.(.(.(.(.(.(.(.(.(.(.(.(.(.(.(.(.(.(.(.(.(.(.(.(.(.(.(.(.(.(.(.(.(.qXqX5X4X5X5X4X8X",
"5X4X4X4X4X3X4X(.(.(.(.(.(.(.(.(.(.(.(.(.(.(.(.(.(.(.(.(.(.(.(.(.(.(.(.(.(.(.(.(.(.(.qX5X5X4X8X4X4X4X",
"4X8X4X4X4X3X4X(.(.(.(.(.(.(.(.(.(.(.(.(.(.(.(.(.(.(.(.(.(.(.(.(.(.(.(.(.(.(.(.(.(.(.qXqXqXqX5X4X4X5X"
};
