/* XPM */
static char *_971e833742c4884d5a7b012b393ef2a0veyzlibpljV3ZiB[] = {
/* columns rows colors chars-per-pixel */
"50 50 100 2 ",
"   c #EBECEE",
".  c #E9EBED",
"X  c #E8EAEC",
"o  c #EAECEE",
"O  c #E9EBEC",
"+  c #E5E8EA",
"@  c #E4E7E9",
"#  c #E7E9EB",
"$  c #E6E8EA",
"%  c #E2E5E6",
"&  c #E3E5E7",
"*  c #E5E7E9",
"=  c #E3E6E8",
"-  c #E4E7E8",
";  c #EBEDEF",
":  c #EBEDEE",
">  c #EAEBED",
",  c #E9EAEC",
"<  c #E6E9EB",
"1  c #ECEDEF",
"2  c #EEEFF1",
"3  c #EFF0F2",
"4  c #F3F4F6",
"5  c #F1F3F4",
"6  c #F2F3F5",
"7  c #F0F1F3",
"8  c #EDEEF0",
"9  c #EAECED",
"0  c #E8EAEB",
"q  c #E6E9EA",
"w  c #E4E6E8",
"e  c #E2E5E7",
"r  c #E0E2E5",
"t  c #E2E4E7",
"y  c #E7EAEB",
"u  c #F1F2F4",
"i  c #F3F4F5",
"p  c #ECEEEF",
"a  c #E1E3E5",
"s  c #DEE0E3",
"d  c #DFE1E5",
"f  c #F1F2F3",
"g  c #EFF0F1",
"h  c #F0F1F2",
"j  c #F4F5F6",
"k  c #ECEDEE",
"l  c #E5E8E9",
"z  c #E1E4E6",
"x  c #DFE1E4",
"c  c #E4E6E9",
"v  c #EDEFF0",
"b  c #E8EBEC",
"n  c #E2E4E6",
"m  c #E3E6E7",
"M  c #E6E8EB",
"N  c #E3E5E9",
"B  c #E1E2E6",
"V  c #E8E9EB",
"C  c #E7E9EA",
"Z  c #E6E8E9",
"A  c #EFF1F2",
"S  c #EEF0F1",
"D  c #EEEFF0",
"F  c #E5E7E8",
"G  c #ECEEF0",
"H  c #F2F2F4",
"J  c #F3F3F5",
"K  c #EDEEEF",
"L  c #F2F3F4",
"P  c #E1E3E7",
"I  c #E0E2E6",
"U  c #E3E5E8",
"Y  c #E1E3E6",
"T  c #F5F6F7",
"R  c #F4F5F7",
"E  c #EEEFF2",
"W  c #EDEEF1",
"Q  c #E2E3E7",
"!  c #E0E1E5",
"~  c #F5F5F7",
"^  c #F0F0F2",
"/  c #E0E3E5",
"(  c #E5E7EA",
")  c #DFE0E5",
"_  c #DDDFE2",
"`  c #DFE0E4",
"'  c #DDDEE2",
"]  c #DEDFE4",
"[  c #DEE0E4",
"{  c #DCDEE1",
"}  c #DFE1E3",
"|  c #E3E4E8",
" . c #DFE2E4",
".. c #E0E2E4",
"X. c #E7E8EA",
"o. c #EFEFF1",
"O. c #EDEFF1",
"+. c #EDEDF0",
"@. c #F1F1F3",
"#. c white",
/* pixels */
"  . X o O + @ # X # $ % & * = - @ - @ # # O ; : >   , < . o   O 1 2 3 4 4 5 6 7 7 7 3 8 8   ; 8 1 9 ",
"> X 0 O # * * $ * q * $ * w & e & r t @ < 9   9 > > # # >   X y 1 2 u i u 6 i 7 u 2 8 p   o 8 1 o > ",
"X X . O 0 + $ * + # @ $ & w a s d d e w X >   . O X y O 9   o 8 8 3 f g h j 6 f f 2 8 1 .   1 k > O ",
"y # O O X X $ # O l = e & w z x t c * # > o 1 > > X y > > 1 2 2 g 7 3 7 f 6 u 3 3 v 1 o >   9 1 O b ",
"q # # # X y < > * & e & * $ e = * l $ 0 . 1 p   > # 0 , O 9 1 8 8 1 8 2 3 3 2 1 o O X q # y o : O X ",
"q $ + $ y # # O w & = $ # l e @ @ + * q O 9 O . 0 # # # # O > 9 O >   9   > O X q y + w * $ y $ # + ",
"X # * $ # * # X @ $ # X $ & = @ l - = q O > X X X . X $ # y y # q b # $ # + # $ @ w e n * # < * $ * ",
"# # $ < < # . # y # $ # = * l * + = w q O , q # . X # q < y 0 + q X * e = + @ @ @ & n @ # $ $ @ * y ",
"q y # # 0 X < * w l * - = * w * & n w X . # * y . X # q # O > # , O $ w = @ = * * * + # $ < q + q # ",
"$ * m - y q * w * X @ e = & * q @ w , > M N $ p > q - + q O > >   > y l * # y X 9 O # # y y $ # ; . ",
"+ e w < # + + $ o . # * l # . X q O > w B t X X @ q $ O , > : V $ $ # X X o O > : q $ $ y # q X 1 # ",
"* $ : # 0 . 9   1 . O q > : . C X O * & z = q $ . .   1   1 9 l # # . C w # C O Z $ q # q * - X X = ",
"* . ; . 8 2 3 2 1 O > ; 1   0 C X X # w @ $ . v p 9 1   1 k .   o X   . $ X 0 C # y w - w = l . * m ",
"O 9   > 8 3 A 2 8 1 2 2 : 1 X # X . q * # o A S O 9 1 8 3 :   3 . 8 2 X # X $ X X * e = e & l $ @ 0 ",
"# X > 9 8 2 2 D 3 2 2 8 1 9 O 0 q X # . 9 g 3 8 3 2 2 g : F 1 3 o 1 > l # $ @ X O $ w = & m * # q # ",
"O o > .   1 1 1 8 D 8 8 1   9 X o G v 2 2 2 3 H J 7 h K 0 X 8 1 > 9 , $ $ w $ 0 X + - = e * X o > . ",
"8 o 0 # q y O . 8 2 3 2 8 1 . o 8 2 3 2 1 1 8 L j h : , X .   9 . Z m - & n w * 0 w & a & # : 8 p v ",
": # $ X X O 1 2 3 g 3 3 2 1   p 8 2 8 o o   p f i 1 > o > > O $ $ w $ $ n & = * m z P I w $ q 9 1 p ",
"1 . > : ; 8 3 2 2 2 2 2 8   1 2 3 3 2 S 2 p D f i ; :   X # q * q # y @ = @ l + e e B U w * # 2 p S ",
"O O 8 8 8 8 2 8 2 2 g 7 2 8 8 7 7 7 f h 3 3 7 i f 1   . $ # $ q O 1 # w l $ # w Y P U w = @ O 8 8 ; ",
"O 9       1 D 7 h h 6 6 h 8 2 2 2 3 7 7 h h A 7 2 1 > X # $ * - > o $ q y # + = t U c = @ * # O $ * ",
". X 9     1 3 3 7 i T R L h 7 h h f L u 7 2 2 8 1 9 . 9 X < $ #   o . q + + $ = w $ $ * l = * $ $ X ",
"8 1 1 1 1 3 7 7 4 R j 6 h f 6 i j R 6 7 g 2 2 E 8     1 9 >   1 1 9 . # $ @ = * # 9 X # $ $ X o 1 1 ",
"8 : 9 1 1 : D f 6 4 L u 7 f L 4 i f h 2 8 8 2 o > 1 1 1 1 1 1 1 . O   q * - l $ X > $ * l X 9 .   8 ",
"  > O 9 > : 2 7 L u u i f 7 u u 3 h 7 3 8 K o 9 : 1 : O O > # $ * X . $ $ w $ q X X + + + y O O > ; ",
"9 O > 9 1 7 8 3 7 7 j 4 L L f f 7 7 g 2 1 1 8 8     , $ O X @ = $ X < + % = # y X X $ $ . O . > O 9 ",
". >   D f 8 9 g u 4 R u i 4 f L 3 W 8 1   D 8 :   > $ $ X $ % & Z = + = l $ + q # w a e q : 1 k 9 . ",
"  1 8 h 3 3 u f 6 i 3 h j i L 6 3 2 8 1 8 8 8 o . 0 q X # q w * = * $ = @ n w t a Y t w + o 8 K   o ",
"8 2 3 2 7 J 4 6 i u u 6 j 4 u L A 2 1 p 8 : 8 > . # $ X y # # * q . c Q ! Y & Y r c $ $ X   1 2 D 8 ",
"1 8 8 8 2 4 ~ 7 3 7 u L 6 H 3 G   9 0 X O 1 8 o . $ q q $ # # $ o & I d I t w Y w < y X >   8 8 1 1 ",
"      > 1 u i G 3 7 7 ^ D : o . 1 X l q # O # X $ $ $ * l # q # O Y r I c * e a * # b X O   1 1     ",
"1   . > 8 u 6 1 2 8     O y >   o * $ # O 0 * $ $ X # w l $ m q # n w * q w / & + 0 X y O 9 1 :   1 ",
"> O X > 2 u 3 p 1 > # X # # 8 2 X l X . . * m l O # $ l $ * @ X c @ w & ( r e w $ X y X O >   O .   ",
". # # . 8 g D ; 9 X # q l $ 3 o . .   9 , w m q 0 $ # $ $ l * t ) _ r a B d & e $ $ q O o 9 0 $ X 9 ",
"q @ # X : 1 p 9 1 1 X y X o 3 8 8 . X X # & $ p . Z w Y n - n ` ' s U d ' ] [ & y y O 8 p # w $ p o ",
"< # . > 1 2 1 1 S 3 1 1 2 7 7 8 8 9 X $ w w X 8 # @ a e * n { { } C & I [ ` | # X . 8 2 $ z t X O @ ",
".   1 1 8 9   2 f 3 2 3 f 7 ; 2 2 X # q * = X . w w * : w Y  .t < X a w ..* , 0 # o p 0 w n = $ $ . ",
"9 k   1 1   8 7 f 8   o . 9 X 3 G > # @ $ l 9 * w w O o * X X   : # n $ X X # - $ > > O * * $ , 8 1 ",
"9 1 8 3 p 8 7 7 2 O . , * * 9 O X l & # y $ # * X X > . X.V   8 O , . 8 9 Z $ * $ O 9 0 $ X > 3 2 O ",
"2 2 2 1 # 8 f 3 8 1 p O w C # w & $   # @ * X # y # # O 0 . v 1   8 1 9 # C l $ # q O # . 9 2 2 8 2 ",
"7 h K X . 8 v 8 o.2 8 C $ . # n * v > * . : 1 o > .   > 0 .   X # O y # q # # O 0 o 8 O.2 O.8 2 7 6 ",
"3 : , , o 8 8 8 7 2 1 , . ; # ; 6 f G o h 7 g 2 g 8 o # + * - n n # # X > O > X > 8 2 3 8   9 1 7 6 ",
": 9 o >   D 3 2 2 2 . > . p : L 4 6 3 2 D > ; 2 3 1 X # X # C #   > # > . . . . k K 2 1 . . > : 3 u ",
"9 1   X O     , v   X .   1 2 f 7 8       9 2 o.7 1 o o > O   1 1 . , ; y 0 O 9 8 o.3 8 8 +.  1 3 u ",
"    . q X 9 X O > . 9 2 g 8 g K   1 o 9 9 1 2 @.g   9   >       >   >   , O 9 1 2 3 h 3 2 8 8 2 @.A ",
"; > X # 0 > .     ; 8 K 9   > , , X y O >   8 v     > O O . > > 1 1 1 8 1 1 1 1 8 D o.2 2 8 8 8 2 1 ",
". . 9 X X X X 1 1   O # # # * * $ < q O X .       > . 9 . . . 1 8 8 3 f 7 7 3 7 3 3 3 ^ g 8 :   o o ",
"    1 . 0 + 0 . O O y q * m & w y # q q y > 1 8 1     1     8 2 3 7 u L f 3 u 6 6 i i @.D 1 1 K 8 1 ",
"1 1 1 > 0 # . X X o q * w w & e $ e w $ X 9 1 . . 1 1 1 1 1 1 8 2 h H f f 7 @.u i 6 f 3 2 8 g 2 1 9 ",
"1 1 . X X # # $ O > # # w w e = U I = + b . O O   1 ; . > > . : p 3 7 7 6 f u u u 3 3 7 3 2 2       "
};
