/* XPM */
static char *_f26a60f627b4e5fe57b9ff4091f25eeaaKC8LYKf28NUjsF[] = {
/* columns rows colors chars-per-pixel */
"50 50 229 2 ",
"   c #020B1F",
".  c #0B121B",
"X  c #10181D",
"o  c #030F28",
"O  c #0A1722",
"+  c #0C1A25",
"@  c #0C1B2C",
"#  c #071428",
"$  c #131D26",
"%  c #0B1C34",
"&  c #191E3A",
"*  c #1A232E",
"=  c #0D223D",
"-  c #1A2636",
";  c #232E36",
":  c #3D5C3F",
">  c #0B1947",
",  c #15224A",
"<  c #132355",
"1  c #333C43",
"2  c #4F565D",
"3  c #4D6C4E",
"4  c #4D7664",
"5  c #446960",
"6  c #5B8369",
"7  c #678168",
"8  c #738D7D",
"9  c #051481",
"0  c #0638B7",
"q  c #0740BF",
"w  c #164BBF",
"e  c #033AC4",
"r  c #003CDD",
"t  c #124AC9",
"y  c #025AC8",
"u  c #0B4DDE",
"i  c #0947D7",
"p  c #114CDD",
"a  c #134CD4",
"s  c #025DDA",
"d  c #1A53DB",
"f  c #1652DB",
"g  c #104ACA",
"h  c #245CDA",
"j  c #285CDB",
"k  c #0D62C6",
"l  c #1467C8",
"z  c #0767DB",
"x  c #166CD8",
"c  c #1774DC",
"v  c #3A68DB",
"b  c #0548E0",
"n  c #0E51E2",
"m  c #0365E5",
"M  c #0C6BE5",
"N  c #056BEC",
"B  c #0665E8",
"V  c #146EE4",
"C  c #106EE9",
"Z  c #0E72E7",
"A  c #0F75E8",
"S  c #1573E4",
"D  c #1975E3",
"F  c #1B79E4",
"G  c #1575E8",
"H  c #1B75E9",
"J  c #016DF0",
"K  c #0270F2",
"L  c #2779E3",
"P  c #4975DD",
"I  c #76978A",
"U  c #6E9495",
"Y  c #789A98",
"T  c #6F8893",
"R  c #7CA295",
"E  c #3E91CF",
"W  c #3F92D1",
"Q  c #1D81F1",
"!  c #2B82E3",
"~  c #3382E3",
"^  c #3FACF2",
"/  c #489CD5",
"(  c #4B9BD1",
")  c #4CA3DC",
"_  c #56A9DA",
"`  c #56B0D8",
"'  c #4B9FE2",
"]  c #4285E4",
"[  c #45A1E4",
"{  c #4BA4E3",
"}  c #4EA2EE",
"|  c #51A6E0",
" . c #54AAE5",
".. c #57ADE9",
"X. c #5AB9E4",
"o. c #55B6E6",
"O. c #43A4F3",
"+. c #4BA6F2",
"@. c #4CABF3",
"#. c #49AEF9",
"$. c #47AAF5",
"%. c #51ABF3",
"&. c #4DB1F4",
"*. c #4EB6F8",
"=. c #54B4F5",
"-. c #5BB6F5",
";. c #54BBF4",
":. c #5DB9F4",
">. c #52B6FA",
",. c #58BCF9",
"<. c #65BBF3",
"1. c #66BCF5",
"2. c #77A9E7",
"3. c #5CC4F6",
"4. c #5BC5F9",
"5. c #5CC9FA",
"6. c #58C3F7",
"7. c #6CC6EC",
"8. c #68C7EE",
"9. c #65C4F4",
"0. c #63C9F7",
"q. c #6BCCF6",
"w. c #64CCFA",
"e. c #69C7F5",
"r. c #73CEF4",
"t. c #76C7F3",
"y. c #76D1F6",
"u. c #73D3F9",
"i. c #7DD2F5",
"p. c #78C9EA",
"a. c #829487",
"s. c #89A499",
"d. c #98A998",
"f. c #98B6AD",
"g. c #9EB4B5",
"h. c #8FA8AA",
"j. c #B3BAB5",
"k. c #ABB6B0",
"l. c #9EB8C4",
"z. c #A6B7C3",
"x. c #B2C5C4",
"c. c #B6CAC5",
"v. c #BCCBCB",
"b. c #B3C3CC",
"n. c #BFD0CE",
"m. c #B8C5D2",
"M. c #9DD6EC",
"N. c #86D2F2",
"B. c #97D6F0",
"V. c #A9D9EC",
"C. c #B9DCE9",
"Z. c #ABDAF5",
"A. c #B4DDF5",
"S. c #B2DDF9",
"D. c #BCE6F7",
"F. c #B3E4FA",
"G. c #BAE6FA",
"H. c #BCEAFB",
"J. c #B4E0F7",
"K. c #C2CCC8",
"L. c #C3D2CD",
"P. c #C8D0CB",
"I. c #C4CDD5",
"U. c #CAD7D3",
"Y. c #CAD6D7",
"T. c #D6DBDB",
"R. c #DCE1DC",
"E. c #CBD7E2",
"W. c #D2DCE2",
"Q. c #D4DDEB",
"!. c #DCDFE7",
"~. c #C6D9F2",
"^. c #C8DDF4",
"/. c #CCE3EC",
"(. c #C5E2EE",
"). c #DDE2E3",
"_. c #DCE4EB",
"`. c #D7E3E9",
"'. c #C2E6F9",
"]. c #C4EDFB",
"[. c #C9EFFB",
"{. c #C7E4F0",
"}. c #DAE7F6",
"|. c #D9EAF8",
" X c #CDF1FC",
".X c #C4F1FF",
"XX c #D3F3FC",
"oX c #DBF4FC",
"OX c #E2E4E5",
"+X c #E6E9E6",
"@X c #E4E6E9",
"#X c #E7EAEC",
"$X c #E6E9EC",
"%X c #E6E9EB",
"&X c #E8E9EB",
"*X c #E9E9EA",
"=X c #E9EAEA",
"-X c #E9EAEC",
";X c #E8EBEC",
":X c #EAEBED",
">X c #EAEBEE",
",X c #EBECEE",
"<X c #EBECEF",
"1X c #EAECED",
"2X c #ECEDEF",
"3X c #ECEDEE",
"4X c #ECEEED",
"5X c #EBECED",
"6X c #E8E8E6",
"7X c #EFF0EE",
"8X c #F0F0EF",
"9X c #EDEEF0",
"0X c #ECEEF0",
"qX c #EEEFF1",
"wX c #EDEEF0",
"eX c #E5EDF4",
"rX c #EFF0F2",
"tX c #EFF0F2",
"yX c #E4F4FB",
"uX c #EBF3FB",
"iX c #EDFBFE",
"pX c #ECFAFE",
"aX c #E7F8FC",
"sX c #F0F1F3",
"dX c #F1F2F4",
"fX c #F1F2F4",
"gX c #F2F5FA",
"hX c #F2FBFE",
"jX c #FCFDFE",
/* pixels */
"2X,X:X,X,X%X@X:X:X:X%X@X@X;X@X@X@X@X@X#X,X,XtX4X,X,X,X#X,X,X,X,X9XrXrXgXfXsXdXfXfXsXsX2X9X2X9X9X9X2X",
",X:X:X,X:X%X%X%X%X%X@X;X*X@X@X@X@X@X@X$X#X,X,X,X,X,X#X,X,X,X,X#X,XrXfXgXfXfXdXsXfX8X9X7X2X2X9X9X2X,X",
":X:X,X,X:X@X:X@X%X#X%X%X@X@XOXOXOX!.@X@X=X4XrX,X,X,X#X#X4X,XtXtX7XrXfXrXsXdXdXfXfX9X9X9X,X2X7X2X,X,X",
":X;X,X,X:X:X;X:X:X%X@X@X@X6XOXOX@X@X$X:X,X=X,X,X=X=X=X=X,X4X,X,XsXsXrXsXfXfXdXfXrXrX9X2X,X,X2X2X,X,X",
"%X:X;X;X:X:X%X,X;X@XOX@X%X=X_.@X*X*X%X%X+XU.L.L.L.c.c.v.U.U.n.U.;X4X2XrXrXrXtXtX2X,X,X%X#X#X,X2X,X,X",
"%X:X@X*X#X:X;X,X@X@X@X;X=X%X@X%X@XOXT.v._.{.V.B.i.r.r.r.0.8.q.p.f.c.Y.=X4X,X#X#X%X#X@X%X%X;X%X;X#X%X",
":X:X@X;X;X*X;X:X%X#X%X,X%X%XOX).Y.R 7.r.y. XXXXXXXXX].H.q.0.w.w.r.p.B.v.).#X=X=X%X%X@X@X%X;X%X*X%X%X",
";X;X;X#X%X;X:X;X%X,X%X%X@X,X`.s.7.9.q.H. XoXoXoXXX[.y.y. XXXXX X XXX XV.{.#X%X%X%X@XOX$X;X;X;X@X%X#X",
";X;X;X;X,X#X#X%X@X%X@X%X%XR.r.8.q. X[.i.[.XX[.[.8.y.[.XXiXiXoXoXpXoXpXXXXX/._.=X*X%X%X;X;X#X%X%X%X:X",
"*X@XOX%X#X%X%X%X;X;X%X@XR.I 8..XXXoXoX[.r.0.q.0.q.].oXiXiXoXoXiXpXXXpXiXXXyX/.=X2X,X;X;X%X%X;X;X2X2X",
"%X@X%X#X#X%X%X;X,X,X:XOXL.p.r.XXoX XXXoX].q.3.0.].oXiXhXiX XoXiXXXy.XXyXt. XyX1X2X;X%X;X,X%X;X5X,X:X",
"%X%X,X:X:X,X,X2XrX,X9XOXf.N. XoX Xi.].XXoX[.3.q.XXiXXXiX Xy.[.aX0.;.XX[.c ;.u.[._.%X%X:X%X%X@X=X,X@X",
"%X,X2X,X9X9XsX9X2X,X4X).M. XiXiXoX[.r.q. XD.L D.oX[.y.D.0.*.u.D.V D <.D.M m ;.t.2.@X%XOX@X@X%X;X%XOX",
",X2X2X,X9XsXsXrX2XrX=Xx.M.XXhXjXhXhX[.q.0.;.S [.XX0.5.3.x S ;.6.V ~.~ &.D m B L Q.;X@X@X@X@X%X;X%X,X",
";X:X,X2X9X9XrX9XrXrX#XN. XXXXXaXjXjXhXoX9.Z ;.XX'.D *.6.S ~.~ ^ L gX}.~ ^.S s ] `.%X%X@X@X@X*X5X%X:X",
",X2X,X,X2X9X9X9X9XsXeXi.XXXXy.q.oXaXjXjX|.x 9. Xe.z c &.L gX|.~ }.jXjXgXuXD U ).eX$X@X@X@X@X:X5X,X,X",
"9X2X,X;X%X;X,X,XtXtX#XZ.aXhXoXq.0.q.oXiX:X, X.].,.L ~.~ }.jXjXuXjXjXjXjXyXD f.OX:X%X@XOX@X;X2X8X9X9X",
"2X=X%X,X=X2X2XrXtXtXtXtXoXiXjXyXq.3.w.u./.- X.5.S S.XX'.jXjXjXjXjXhXhXjX'.D g.+X@XOX@XOX@X*X;X5X9X9X",
"7X,X,X,XrX2XrX9X4XtXsXrXoXXXaXjXyXr.5.3...> ` *.V D.[.].H.].[.].[.hXXX XF.F b.=X@X@XOX@X@X$X:X9X9XsX",
",X,X9X9X9X7XrX2XtXtXsXrXoX XN.oXaXXX:.u b 0 , o.S G.].<.:.=.=.&.-.D. X].%.c W.=X@X@X$X@X@X$X:X9X9X9X",
",X,X,X2X2X7XrXsXtXtXgXtXoXXX].q.w.9.n V $.z > / C D.[.].eX<.-.:.-.-.[.G.c U OX@X@X@X$X$X@X$X:X:X;X*X",
",X,X2X2X2X2XrXrXtXtXfXhXyXoXXXq.5.;.a C.pX%.t < x H. X XhXyX|.eX|.1.H.H.F g.+X@X@X@X*X*X$X@X$X*X;X:X",
"rX,XrX2X2XsXsXsXjXdXfXfXtXoXXXD.w.o.* C.hX1.Z.D.'.[.[.[.].<.H p L |.XXF.F g.@X;X*X:X*X*X$X*X0X:X9X9X",
",X7X,X9X2X2X8XsXsXhXfXfXfXoXXXr.5.X.@ l Z.1.H.XX[.[.].[.].&.C r n uXoXG.H c.@X#X:X0X*X$X@X:X0X:X5X9X",
",X,X,X,X,X,XrXrXfXfXfXfXfXfXoX[.q.5.` = k { ].[.[.[. X XH.1.}.C M uXjXyXL z.@X:X:X:X:X@X%X:X5X5X5X9X",
"9X,X,X,XrXrX7XrXfXfXgXfXfXfXT.oX Xq.5.` @ * C. X[.[.]. XH.1.|.G Z uXjXjXA.! `.2X:X:X@X;X:X2X5X2X5X9X",
",X,X,XrXsX8XeXsXdXgXdXfXfXfX=XoX XH.0.5.X.[ :.].[.[.[.[.[.H.1.&.<.uXjXjXG.F `.,X#X@XOX@X%X2X9X2X5X5X",
",XrXrXrXsXsXsXsXdXdXsXsXjXfXfX`.t.w.0.5.5.*.=.G. X X[.[.[.[.H.].pXjXjX].| ! `.$XOX@X@X@X#X2X9X9X9X9X",
"9X9XsX9XsXdXdXdXfXsXsXfXdXgXtXP.Y ` X.4.*.*.&.:.G.].[.[.[. X X XXX[.G.( ; I.$X@X@X$X$X*X:X2X9X9X9X9X",
"9X9X9X2X9XdXgXdXsXsXgXsXdXfXrX=Xj., # l [ { #.#.>.1.H.]..X].H.H.F. .k - j.@X@XOX@X$X:X:X5X2X9X9X9X9X",
"2X2X2X5X8XfXgX8X8XsXrXrXsX7X2X2X$Xk.3 o   % k z ' [ ) | ) | { c l # X a.@X$X@XOX@X#X#X:X5X9X9X9X9X5X",
"9X2X2X2X2XsXfX8XsXeX7X4X,X=X,XeXtXR.4 0 x / * . O O O $ $ O O   . 3 d.).:X@X@X@X#X:X#X:X5X2X9X2X9X9X",
"2X:X:X5XrXsXsX9X9X2X;X,X;X;X2X2X@Xh.g %.F.hX4XC...[ _ C.C._ { t 5 Y.;X@X@XOX@X@X*X*X:X:X:X:X0X:X5X2X",
"2X:X:X5X9XsX9X2X2X,X;X%X%X;X9X7XY.a C F.oXhXhX].C.| >.H.XXiXhXS.t d.OX@XOXOX@X@X$X*X@X0X0X0X:X*X:X2X",
"#X$X:X:X2X9X9X2X2X2X,X,X=X2XrX8XI.p O.H.].H.=.l * @ [ ,.D.jXjX'.g T T.@X!.!.OX@X*X:X0X9X9X*X@X*X2X2X",
"#X:X5X:X9X9X9X9XsXrX2X2XrXsXsX2Xb.p $.:.-.#.z % E z G $.:.G. XJ.i a g.OXOXOX@X;X0X*X0X9X$X@X@X:X:X#X",
":X2X9X9X9X2X2X9XfXrXrX9XsXrX8XW.d M -.F.+.u u ' *.#.$.&.=.,.-.+.b B j m.OX@X:X:X*X9X9X*X@X@X@X*X:X:X",
"2X2X9X9X9X2X9XsXfX9X9X9X2X,X2XI.p %.].'.f r O.*.&.&.&.-.D.G.@.b B O.B P K.;X:X@X*X:X0X0X*X*X$X:X9X9X",
"2X2X9X9X9X9XsXsX9X5X:X:X@X*X2Xv.d S.jXgX} i +.>.=.@.:.H. X].%.i N O.f v b.+X#X@X$X0X9X*X*X:X5X9X9X2X",
"9X9XrX9X:X9XfXsX9X9X9X:X*X:X5XI.j S.gXyX .@ [ *.#.=.G. X[.].%.9 y V z.v.OX:X%X;X*X$X0X*X9X9XrX9X9XrX",
"sXrX9X:X,X9XrX9XrX9X9X:X*X:X*X!.E.t.%.H W * / >.#.<.'.[.[.[._ X X ; K.;X:X5X5X5X:X9X9X9XrX9X9XrXsXfX",
"rX2X:X:X2X9X9X9XrXrX9X:X:X9X;X;XR._.<.y + : % /  .F.[.[.XX~.& 4 d.j.OX:X5X5X5X5X:X9X9XrX9X9X9X9XsXfX",
"2X2X2X,X2X9XrX9X9X9X5X9X2X2X4XfX2XR.T.; 3 I 0 o @ _ H. XhX'.t Y 6X4X:X:X5X5X5X5X9X9X9X9X5X5X5X2XrXfX",
"2X2X2X:X2X2X2X,X9X9X5X5X2X2XsXsXsX;XR.U.R.6 i z y % _ D.jXuXD h Q.4X:X5X:X5X5X5X9X9XsX9X9X9X2X9XrXfX",
"2X2X,X%X:X2X:X,X2X2X2X9XsX2XsX2X,XtX#XgXT.* s K N 0 #  .H.XX].Z.v !.2X2X5X5X5X5XrXrXrXrX9X9X9X9XfXsX",
"7X,X,X:X:X,X,X2X2X9X9X2X2X2X2X;X,X#X#X,XP.2 e m J m o k >.G.G.%.j `.sX2X2XrXrXrX5XrXrXrXrX9X9X9X9X9X",
",X,X,X,X:X:X:X2X2X2X,X;X;X;X;X6X%X=X%X2XR.7 - g z M 0 % ) ..d d Q.8XrXsXfXrXrXfXrXrXrXrXrX9X9X9X2X2X",
"2X2X2X,X,X%X:X:X2X2X;X%X6X@X@X@X=X=X=X;X4XR.8 4 4 4 4 3 7 I f.v.2XsXsXgXfXrXfXfXfXfXfXfX9X9X9X9X9X9X",
"9X9X2X,X,X;X,X:X:X2X%X*X@X@X@X@X%X@X@X#X:X9X%XOXOXOX+X+XOX+X4X7X9XsXfXfXsXsXsXfXdXdXdXsXrX2XrX9X9X2X",
"9X9X,X,X:X;X;X%X:X2X;X;X@X6X@X@X@XOX@X#X#X,X2X9X9XfX7X2X9X2X2X2X9XsXsXsXdXfXfXfXsXsXsXfXrXrX8X2X2X2X"
};
