/* XPM */
static char *c814e89329e441df880f3f5ae2543f73BUvB68n695vaAR22[] = {
/* columns rows colors chars-per-pixel */
"50 50 15 1 ",
"  c None",
". c black",
"X c #000027",
"o c #000074",
"O c #003EDA",
"+ c #015EE2",
"@ c #0162E3",
"# c #0468E7",
"$ c #4FB0F5",
"% c #5DC7F7",
"& c #C9EEFC",
"* c #D6F4FD",
"= c #EFFBFE",
"- c #FBFBFE",
"; c white",
/* pixels */
"                                                  ",
"                                                  ",
"                                                  ",
"                                                  ",
"                                                  ",
"                                                  ",
"                                                  ",
"                   @@@@@@@@@@@                    ",
"                 @@%%%%%%%%%%%@@                  ",
"                @%%====%%%====%%@                 ",
"              +@%%%=====%=====%%%@+               ",
"             +@%%=%=========;=%=%%@+              ",
"             @%*===%===----=;%===*%@+             ",
"            +@%*======-----=;;===*%@%+            ",
"            @%**======----==;;=%=%%@@%+           ",
"           +@%%%=%=========;;====*%%@XXX          ",
"           +@%%*=================**%@X            ",
"           X@%***===============***%@X            ",
"           X@%***=%=============***%@X            ",
"           X@%%***%============***%%@X            ",
"           #@%%%***%======%==****%%%@O            ",
"          O$#@%%******%===%******%%@##O           ",
"          O-$@%%%***************%%%@$&O           ",
"          .-$O@%%%********%****%%%@O$&.           ",
"          .&$O@%*****************%@O$$.           ",
"           .#O@%*****************%@O#.            ",
"            ..#@%**%*******%%***%@#..             ",
"             .#@%%%***%%%%****%%%@#.              ",
"              .@%%%*%%*****%**%%%@.               ",
"              .#@%%%**%%%%%*%%%%@#.               ",
"               .X@%%%%*****%%%%@X.                ",
"                .X#$$%%%%%%%$$OX.                 ",
"              OOOO..##$$$$$##..OOOO               ",
"             O$&&$$$...###...$$$&&$O              ",
"            O$&--$&&&&$$$$$&&&&$--&$O             ",
"            O$&--$&&--&&&&&--&&$--&$O             ",
"            O$&&$#&&--&&&&&--&&#$&&$O             ",
"            O#$$$.$&&&&&$&&&&&$.$$$#O             ",
"           O$$$$.O#$$&&&$&&&$$#O.$$$$O            ",
"           O$&$. O#$&&&&$&&&&$#O .$&$O            ",
"          O$&&$. O#$&&&$$$&&&$#O .$&&$O           ",
"          O$&&$. O$&&&&&&&&&&&$O .$&&$O           ",
"          O$&O$. o$&&&&&&&&&&&$o .$O&$O           ",
"          O$$..  .$&&&&&&&&&&&$.  ..$$O           ",
"           ...   O#$&O$$$$$O&$#O   ...            ",
"                  O$$$OOOOO$$$O                   ",
"                  O$&&$O O$&&$O                   ",
"                  O#$$#O O#$$#O                   ",
"                  O$$$$O O$$$$O                   ",
"                  O$&&$O O$&&$O                   "
};
