/* XPM */
static char *_36990d6681044e2be421dbc63dff694GjJiWt1DtLuF9Qde[] = {
/* columns rows colors chars-per-pixel */
"50 50 203 2 ",
"   c black",
".  c #010000",
"X  c #000100",
"o  c #000200",
"O  c #000002",
"+  c #000021",
"@  c #000022",
"#  c #010022",
"$  c #000074",
"%  c #002E9E",
"&  c #0054AC",
"*  c #0055AC",
"=  c #003BDA",
"-  c #013BDB",
";  c #003CDA",
":  c #003CDB",
">  c #003BDD",
",  c #013DDC",
"<  c #003CDD",
"1  c #0049DE",
"2  c #005DE1",
"3  c #005EE2",
"4  c #005FE2",
"5  c #005BEA",
"6  c #005DE9",
"7  c #005CEB",
"8  c #0066E7",
"9  c #0067E7",
"0  c #0067E8",
"q  c #0066E9",
"w  c #0166EA",
"e  c #0067EA",
"r  c #0B63E8",
"t  c #0A65EA",
"y  c #0C64E9",
"u  c #0D64E9",
"i  c #0C64EA",
"p  c #0D65EA",
"a  c #0068E8",
"s  c #007CEA",
"d  c #007DEB",
"f  c #017EEC",
"g  c #019FE9",
"h  c #009DEA",
"j  c #019EEB",
"k  c #009FEB",
"l  c #029EEB",
"z  c #019EED",
"x  c #00A4EB",
"c  c #01A5EC",
"v  c #00A6EC",
"b  c #00B3EB",
"n  c #01B5EA",
"m  c #28B9EE",
"M  c #29B9EE",
"N  c #4BB0F4",
"B  c #4DB0F4",
"V  c #4CB1F5",
"C  c #4EB1F4",
"Z  c #4FB0F5",
"A  c #4EB1F5",
"S  c #4EB0F7",
"D  c #4DB2F6",
"F  c #4FB2F6",
"G  c #4FB1F8",
"H  c #50B1F6",
"J  c #11DBE9",
"K  c #12DBEB",
"L  c #11DCEB",
"P  c #13DCEC",
"I  c #00E5EB",
"U  c #00E5ED",
"Y  c #5CC7F5",
"T  c #5CC6F6",
"R  c #5DC7F7",
"E  c #5EC7F7",
"W  c #5CC8F6",
"Q  c #5DC8F6",
"!  c #5CC8F7",
"~  c #5DC7F9",
"^  c #5DC9F8",
"/  c #5EC8F8",
"(  c #57E5FD",
")  c #57E4FF",
"_  c #56E6FE",
"`  c #56E6FF",
"'  c #57E7FF",
"]  c #59E5FC",
"[  c #58E4FD",
"{  c #58E6FC",
"}  c #59E5FE",
"|  c #58E5FF",
" . c #58E6FE",
".. c #59E6FF",
"X. c #59E7FF",
"o. c #57E8FD",
"O. c #63EDEF",
"+. c #6AE9F2",
"@. c #95C3F5",
"#. c #97C2F5",
"$. c #98C1F5",
"%. c #98C3F6",
"&. c #8DECEE",
"*. c #8EEDEF",
"=. c #86EDFC",
"-. c #86EDFE",
";. c #8EEDFF",
":. c #8FEEFF",
">. c #8EEFFF",
",. c #8FEFFF",
"<. c #90EFFF",
"1. c #C9EDF9",
"2. c #C9EDFB",
"3. c #CAEEFA",
"4. c #CBEFFB",
"5. c #C9EFFC",
"6. c #CAEEFC",
"7. c #CBEFFD",
"8. c #CAEEFE",
"9. c #CBEFFF",
"0. c #CCEDFC",
"q. c #CCEDFE",
"w. c #D6F3FB",
"e. c #D7F4FA",
"r. c #D6F5FA",
"t. c #D6F4FC",
"y. c #D7F4FC",
"u. c #D8F3FC",
"i. c #D8F5FD",
"p. c #DEFAFE",
"a. c #DFFAFF",
"s. c #E4E5E7",
"d. c #E1E5E8",
"f. c #E3E4E8",
"g. c #E5E4E9",
"h. c #E4E5E9",
"j. c #E5E6EA",
"k. c #E6E7EB",
"l. c #E4E7EC",
"z. c #E4E8E9",
"x. c #E4E8EB",
"c. c #E7E8EA",
"v. c #E6EAEB",
"b. c #E5E9EC",
"n. c #E5E8ED",
"m. c #E5EAED",
"M. c #E6EAED",
"N. c #E6E9EE",
"B. c #E7EBEE",
"V. c #E8E9EB",
"C. c #E8E9ED",
"Z. c #E8E9EE",
"A. c #EBEDEC",
"S. c #EBECEE",
"D. c #EAEEEF",
"F. c gray93",
"G. c #ECEEED",
"H. c #ECEDEF",
"J. c #EDEDEF",
"K. c #EDEFEE",
"L. c #EEEEEE",
"P. c #E9EDF0",
"I. c #EAEEF1",
"U. c #EBEFF2",
"Y. c #ECEDF1",
"T. c #EDEEF0",
"R. c #EEEEF0",
"E. c #EEEFF1",
"W. c #EFEFF1",
"Q. c #EDEEF2",
"!. c #EFF0F2",
"~. c #E0F9FE",
"^. c #E1FAFE",
"/. c #E1FAFF",
"(. c #E2FBFF",
"). c #EFFAFE",
"_. c #EEFCFF",
"`. c gray94",
"'. c #F0F0F2",
"]. c #F0F1F3",
"[. c #F1F3F2",
"{. c #F1F2F4",
"}. c #F5F6F8",
"|. c #F0FBFD",
" X c #F1FAFF",
".X c #F0FBFF",
"XX c #F6FBFE",
"oX c #F7FAFF",
"OX c #F6FBFF",
"+X c #F1FCFF",
"@X c #F7FCFF",
"#X c #FBFBFB",
"$X c #FCFAFB",
"%X c #FAFAFC",
"&X c #FAFBFD",
"*X c #FBFBFD",
"=X c #F8FBFF",
"-X c #FBFAFF",
";X c #FCFAFD",
":X c gray99",
">X c #FCFCFE",
",X c #FEFEFE",
"<X c white",
/* pixels */
"H.H.H.A.T.M.l.] ] ' ] ' ] ' ] ' ] ] ' ] ] ] ' ] ' X.' ] ' ] ' ] ' ' ] ' ' ] ' ] ' ' !.H.T.Y.S.T.T.S.",
"T.H.H.M.M.l.M.] ] [ ' ] ] ' [ ' ] ' ' ' ' ] ] ' ' ] ' [ ] ' ' ] ' ] ' ] ' ] ] ' ] ] T.T.F.T.T.T.S.T.",
"H.H.H.H.T.M.M.] ' ' ) ' ' ] ' ' ] ' ] ' ' ' ' ] ' ' ] ' ] ' ] ' ' ] ' ] ] ' ] ] ] ' T.H.S.T.T.S.T.T.",
"M.H.T.A.Y.T.M.' ' ] ' ] ] ' ] ' ' ] ' ] X.' ] ' [ ] ' ] ' ] ' ] ] ' ] ' ' ] ' ' ' ] T.H.T.T.T.T.T.S.",
"M.Y.M.A.M.M.M.' ] ' ' =././././././././.E E E T E E E ! ~ E E ~ /.p././././.' ] X.] Y.M.A.M.T.S.Y.M.",
"M.M.M.M.M.Y.T.] ' ] ' <.#.y 5 b U E E / T E E E y.y.y.y.t.t.t.E T T &.M K OX' ' ] ' M.l.M.M.S.M.M.M.",
"A.M.l.Y.A.M.M.' [ ] ] ,.#.y 6 E T t.t.y.y.y.t.y.E ~ y.y.y.y.t.t.y.E ~ ~ K OX' ] ' ] l.z.M.A.M.M.M.M.",
"M.Y.M.M.M.M.Y.] ' ' ' ,.#.y E t.t..Xu.).y.y.)..Xt.t.E E y.i.i.u.E y.w.T E E ] ' ] ' l.z.M.M.B.M.l.A.",
"M.S.M.M.S.v.M.' ] ' ] ,.#.E ).t.).+Xy.)..Xt.t..X.Xt.y.E E T ! E y.y.y.y.y.E ' ] ' ) M.M.M.H.M.M.M.H.",
"M.M.l.l.F.M.M.] ] X.] <.E ).t.E .Xy.! w..Xu.t..X.X.Xe.y.E E E y.y.y.y.y.y.E ~ ] ' ' T.A.M.S.M.M.T.H.",
"M.l.z.T.M.M.M.[ ' ' 4 / w.E E 4 y.y.E E .Xu.~ w..Xy..Xy.E E w.y.y.y.E y.y.y.! ' [ ] M.M.H.M.M.M.T.M.",
"l.T.A.M.Y.T.S.' ' ' ] 3 E E 4 4 y./ 4 4 e.E E ~ w.E y.u.y.4 y.y.T E y.y.)._.y.E ] ' v.M.l.S.S.M.T.j.",
"M.S.T.T.T.T.'.] ] ' ' ,.4 4 9 4 ! 4 *X4 E E 2 2 T E E t.y.4 T ! ! y.+X<X<X).y.! ' ' M.j.l.M.v.H.S.l.",
"T.T.Y.A.T.T.T.[ ' ] ] 4 2 4 q *X4 *X*X4 E 4 *X2 E E 4 t.y.~ 4 / )._.<X<X).t.y.y.~ ] j.l.l.j.M.M.l.H.",
"M.S.T.T.T.T.T.' ] ] ' ,.#.r q *X*X*X;X*X4 *X*X4 T 4 4 ~ y.E 4 )._.<X.X_./ E e.y.E ' M.z.l.M.M.T.M.M.",
"S.T.S.S.T.Y.T.' ' ] ] ,.#.r a *X*X*X*X*X*X*X*X*X4 *X4 E y./ @ <X).).E T / ).).).E ' B.z.g.l.A.T.H.T.",
"T.T.T.M.M.M.Y.] ] ' ] ,.#.r q 6.*X*X*X*X;X*X*X*X6.6.6.4 E E @ .XE E ! E .X<X).y./ ' j.f.l.T.T.A.T.Q.",
"T.M.M.M.T.A.T.' ' ] ' ,.#.p a 6.6.6.*X6.6.6.6.6.6.6.6.4 E ~ @ E ! ! E .X<X.Xw.y.T ' f.j.l.M.M.T.T.A.",
"T.M.A.T.T.T.].] ] ' ' ,.#.p q G 6.6.6.S S C A A A 6.6.4 E @ ; < ; ! _.)..XE y.y.E ] f.j.M.M.M.T.T.].",
"T.M.T.T.Y.T.T.' ' ] ] ,.#.r 6 9 6.6.A A A A A *X6.6.6.4 E @ q A q = E E E y.y.y.T ' f.v.j.M.T.T.T.T.",
"T.T.Y.T.Y.T.].' ] ] ' ,.#.p 7 q 6.6.A *X*X*X;X*X6.6.2.8 @ ; A *X6.; ! E T w.y.y.E ' M.f.M.M.M.T.M.M.",
"l.T.T.S.T.F.'.] ] ' ] ,.$.y 7 q 6.6.*Xq 1 f A 6.6.6.6.6.6.6.A #X6.  E E y.y.y.E ' ' M.M.l.j.l.S.S.S.",
"T.Y.S.T.T.Y.T.] ' ] ' ,.#.y 6 a 6.6.*X1 1 s S 6.6.6.6.6.6.6.A 6.q   ! T E e.y.E [ { v.v.S.T.H.H.A.Y.",
"!.Y.T.A.T.].T.' ] ' ) ,.#.y 7 q *X*X*Xs f *XN 6.6.6.6.6.0.6.A q   ! E E y.y.~ ' ' { H.M.l.M.H.H.T.T.",
"H.H.H.H.H.H.!.] ' ] ] ,.#.y q 6.*X*X*Xf f *XA 6.6.6.6.6.6.6.    ~ T ! y.y.@ ' ] ' ] l.l.M.Y.H.H.T.T.",
"H.H.H.H.H.!.!.] ] ) ' ,.#.y a 6.;X*X*XN A A 7.6.6.0.6.6.0.A A ! E ~ y.y.i.@ ] ' ] ] A.A.G.H.H.H.S.Y.",
"H.H.H.!.].H.Y.' ] ' ' ,.#.t q A 6.*X*X*X6.6.6.7.6.6.6.6.6.A A E E T E ~ @ OX] ] ' ] l.l.A.T.!.H.H.H.",
"H.!.!.!.].!.].' ' ] ] ,.$.p 7   A 6.6.6.6.6.7.6.6.6.6.6.A A A A E E E @ L OX] o.] ' v.l.M.A.H.H.H.T.",
"T.T.!.!.!.].}.X.] ] ' ,.#.y 7 b   9 A 6.6.6.0.6.6.6.A A A A A A q   @ M K OX' ' ' ] l.Y.H.H.`.].].H.",
"H.T.T.].!.].}.] ' ] ] ,.$.y 7 b I     q q A A A A A A A q q       O.&.M K OX] ] ] ' M.H.H.H.H.H.T.T.",
"H.H.H.H.!.].{.X.] ' ] ,.#.t 6 b I j z                       A a > O.&.M K OX' ] ] o.H.H.H.H.T.T.S.T.",
"H.T.H.H.T.].].' ] ' ] ,.#.y 5 b I j j x < A A 6.6.A A A 6.*X*X6.A = &.M K OX' ' ' ] H.M.H.H.H.H.H.T.",
"T.T.Y.A.!.[.!.' ' ' ' ,.$.y 7 b I j j < 0.$X*X6.6.S H 6.6.<X#X0.6.9 = M K OX] ' ] ' M.T.Y.H.H.H.Y.S.",
"T.A.Y.T.T.!.T.] ' ] ] ,.#.r 7 b I j j ; 6.*X*X6.A A     9 A 6.6.6.A ; M K OX' ] ) [ M.F.S.H.H.M.A.Y.",
"T.l.M.S.T.H.Y.] ] ' ] ,.#.y 7 b I j < ; 0.6.6.A G a 9 A   q A A A A < M K OX' ' ] ' Y.T.H.H.j.M.Y.A.",
"M.M.A.Y.A.T.T.' ' ] ' ,.#.y 7 b I ; a ; A A C A A A A A A < ; H 7.A q ; K OX] ] ' ] T.T.M.f.l.Y.Y.M.",
"Y.A.H.H.].H.T.+.' ] [ <.#.y 7 b ; q A q > A 6.6.A A A A A A ; < 6.6.A = K OX] ' ' ] T.M.j.f.z.M.S.A.",
"Y.T.T.T.H.H.T.] ] ' ] ;.#.y 7 b ; > A a ; A 6.6.6.A A H A A ; A *X<X6.= K OX] ' ' ' Y.A.M.M.M.A.Y.T.",
"A.T.T.T.].H.].X.' ] ' ,.#.y 7 b I   q q $ A 6.0.6.6.A A A A   A *X*X6.> K OX] ' ) ] T.T.M.H.H.!.!.A.",
"T.].'.H.H.H.].] ] ' ] ,.#.y 7 b I j       A 6.6.6.6.A A A A   A 9 A A   K OX] ' ] ' A.M.H.H.!.!.!.!.",
"].].H.H.A.Y.!.] ' ) ' ;.$.y 5 b I j j v j   6.6.6.6.6.A A   %   q A   M K OX' ] ' ] T.T.T.!.T.T.{.{.",
"].H.H.H.T.T.Y.] ] ] ' ,.$.y 6 b I j z x j ; 6.*X6.6.A     ; % &     &.M K OX' ' ] ' !.!.T.T.T.T.].].",
"T.H.H.H.T.!.T.] ' ] ' ,.#.y 7 b I j z v ; q <X*X6.A   q a < % & n O.&.M K OX' ] ' ] Q.T.S.T.Y.T.].].",
"H.H.H.H.A.Y.H.' ] ' ] ,.#.y 7 b I j j ; 6.6.6.6.A   ; a q 9   & n O.&.M K OX] ' ] ' !.T.T.T.A.T.T.].",
"H.T.Y.M.l.A.T.] [ ' ' ,.#.y 5 b I j j ; A 6.6.A q   a a q ;   & n O.&.M K *X' ] ] ] Q.].T.T.T.T.].].",
"H.H.!.H.Y.T.Y.' ] ' ' -./././.p././././.> < A A   ; a a <   /././././././.p.] ' ' ] ].T.T.T.T.T.].!.",
"Y.Y.A.M.F.Y.l.' ' ] ' ] ' ] ] ' ' ] ' ' ] ] ' ] ' ] ] ' ] ' ' X.] ' { ] ' ] ' ] ' ] ].].T.T.T.T.H.H.",
"A.!.A.Y.M.M.H.' ] ' ] ' ] ' X.] ] { ' ] ] ' ] ' ] ' ' ] ' ] ] ] ' ] ' ] ] ' ] ' ] ' ].].A.Y.T.T.H.!.",
"!.A.Y.A.Y.M.Y.' ] ' ] ' ] ' ] ' ] ' ] ' ] ' ] ' ] ' ] ' ] ' ] ' ] ' ] ' ] ' ] ' ' ] ].T.T.T.].T.Y.H.",
"Y.!.Y.A.T.M.H.' ' ] ' ] ' ] ' ] ' ] ' ] ' ] ' ] ' ] ' ] ' ] ' ] ' ] ' ] ' ] ' ] ' ] ].].].].T.T.H.T."
};
