/* XPM */
static char *_9ab1dcfbcf84671c2d3f2a940bbcb69OpZSP5kv1WnzHDnP[] = {
/* columns rows colors chars-per-pixel */
"50 50 200 2 ",
"   c black",
".  c #010000",
"X  c #000100",
"o  c #010100",
"O  c #000002",
"+  c #00001F",
"@  c #000120",
"#  c #000021",
"$  c #000022",
"%  c #000122",
"&  c #000652",
"*  c #000B5B",
"=  c #0054AC",
"-  c #0055AC",
";  c #003CDB",
":  c #003BDD",
">  c #003DDC",
",  c #013DDC",
"<  c #023CDC",
"1  c #013CDE",
"2  c #023DDF",
"3  c #0043E4",
"4  c #005DE1",
"5  c #005EE0",
"6  c #005EE2",
"7  c #005FE2",
"8  c #005EE4",
"9  c #005FE4",
"0  c #005BEA",
"q  c #005DE9",
"w  c #005CEB",
"e  c #005DEB",
"r  c #016AE7",
"t  c #006BE7",
"y  c #0B63E8",
"u  c #0A65E9",
"i  c #0C64E9",
"p  c #0069E8",
"a  c #006AE8",
"s  c #016AE9",
"d  c #006BE9",
"f  c #026BE8",
"g  c #006AEA",
"h  c #016AEA",
"j  c #026BEA",
"k  c #0074EB",
"l  c #019EEB",
"z  c #029EEB",
"x  c #029FEC",
"c  c #01A5EC",
"v  c #00B3EB",
"b  c #01B5EA",
"n  c #01B4EE",
"m  c #29B9ED",
"M  c #29B9EE",
"N  c #2BB8EE",
"B  c #4BB0F4",
"V  c #4DB0F4",
"C  c #4CB1F5",
"Z  c #4EB1F4",
"A  c #4FB0F5",
"S  c #4EB1F5",
"D  c #4EB0F7",
"F  c #4FB0F7",
"G  c #4DB2F6",
"H  c #4FB2F6",
"J  c #10DBEA",
"K  c #12DBEB",
"L  c #13DBEB",
"P  c #11DCEB",
"I  c #12DCEA",
"U  c #12DBED",
"Y  c #00E5EB",
"T  c #00E4ED",
"R  c #01E6EC",
"E  c #5CC7F5",
"W  c #5CC6F6",
"Q  c #5DC7F7",
"!  c #5EC7F7",
"~  c #5CC8F6",
"^  c #5DC8F6",
"/  c #5CC8F7",
"(  c #5CC6F8",
")  c #5DC7F9",
"_  c #5CC8F9",
"`  c #5EC8F8",
"'  c #57E5FB",
"]  c #57E5FD",
"[  c #57E4FF",
"{  c #56E6FE",
"}  c #56E6FF",
"|  c #57E7FF",
" . c #59E5FC",
".. c #58E4FD",
"X. c #58E6FC",
"o. c #59E7FD",
"O. c #59E5FE",
"+. c #58E5FF",
"@. c #58E6FE",
"#. c #59E6FF",
"$. c #59E7FF",
"%. c #5AE6FF",
"&. c #62ECEE",
"*. c #63EDEF",
"=. c #62EEEF",
"-. c #65ECEF",
";. c #6AE9F2",
":. c #97C2F5",
">. c #97C2F7",
",. c #98C1F5",
"<. c #98C3F6",
"1. c #8CEBED",
"2. c #8DECEE",
"3. c #8EEDEF",
"4. c #86EDFC",
"5. c #86EDFE",
"6. c #8EEDFF",
"7. c #8FEEFF",
"8. c #8EEFFF",
"9. c #8FEFFF",
"0. c #91EEFF",
"q. c #90EFFF",
"w. c #C9EFFA",
"e. c #C8EEFB",
"r. c #C9EFFC",
"t. c #CAEEFC",
"y. c #C9EEFE",
"u. c #C8F0FC",
"i. c #CAF0FD",
"p. c #D7F2FB",
"a. c #D6F3FB",
"s. c #D7F4FA",
"d. c #D7F3FE",
"f. c #D6F4FC",
"g. c #D7F4FC",
"h. c #D8F3FA",
"j. c #D8F3FC",
"k. c #D8F5FD",
"l. c #DEFAFE",
"z. c #DFFBFF",
"x. c #E3E4E8",
"c. c #E4E5E9",
"v. c #E6E7EB",
"b. c #E4E7EC",
"n. c #E4E8E9",
"m. c #E4E8EB",
"M. c #E7E8EA",
"N. c #E6EAEB",
"B. c #E5E9EC",
"V. c #E5E8ED",
"C. c #E5EAED",
"Z. c #E6EAED",
"A. c #E6E9EE",
"S. c #E7EBEE",
"D. c #E8E9EB",
"F. c #E8E9ED",
"G. c #EBEDEC",
"H. c #EBECEE",
"J. c #EAEEEF",
"K. c gray93",
"L. c #ECEEED",
"P. c #ECEDEF",
"I. c #EDEDEF",
"U. c #EDEFEE",
"Y. c #EEEEEE",
"T. c #E9EDF0",
"R. c #EBEFF0",
"E. c #EAEEF1",
"W. c #EBEFF2",
"Q. c #ECEDF1",
"!. c #EDEEF0",
"~. c #EEEEF0",
"^. c #EEEFF1",
"/. c #EFEFF1",
"(. c #EDEEF2",
"). c #EFF0F2",
"_. c #E0F9FE",
"`. c #E2F9FF",
"'. c #E1FAFE",
"]. c #E1FAFF",
"[. c #E2FBFF",
"{. c gray94",
"}. c #F0F0F2",
"|. c #F0F1F3",
" X c #F1F3F2",
".X c #F1F2F4",
"XX c #F5F6F8",
"oX c #F5FAFE",
"OX c #F6FBFE",
"+X c #F7FAFF",
"@X c #F6FBFF",
"#X c #F7FCFF",
"$X c #F8FBFF",
"%X c #FAFBFF",
"&X c #FCFBFF",
"*X c #F9FDFF",
"=X c #FBFCFE",
"-X c #FBFCFF",
";X c #FCFCFE",
":X c #FCFDFF",
/* pixels */
"P.P.P.G.!.Z.b. . .|  .|  .|  .|  ...|  . .|  .|  .|  .|  .| |  . .|  .|  .| |  .| | !.!.!.H.!.!.H.!.",
"!.P.P.Z.Z.b.Z. . .| |  . .| | ....| |  .| | $.| |  .|  .|  . .| |  .|  . .|  .|  . .!.!.Q.K.!.!.!.H.",
"P.P.P.P.!.Z.Z. .| ..| | |  .| | | |  .|  . .Q Q / ` Q /  .| | |  .| |  .|  .|  . .| !.!.!.!.!.!.!.H.",
"Z.P.!.G.Q.!.Z.| |  .|  . .|  .| |  . .( ( ( g.g.Q ( s.g.Q Q Q Q  .|  . ... . .| |  .!.P.H.!.!.H.H.!.",
"Z.Q.Z.G.Z.Z.Z.|  .| | 4.].].].].].].( Q Q Q Q Q ( ( Q Q Q Q ( Q Q ].].].].]. .|  . .Q.Z.G.Z.!.Q.Q.Z.",
"Z.Z.Z.Z.Z.Q.!. .|  .| q.:.i 0 v Q Q Q j.a.k.g.s.g.g.g.g.g.g.g.g.Q ( Q N I @X . . .| Z.b.Z.Z.G.Z.Z.Z.",
"G.Z.b.Q.G.Z.Z.| |  . .q.:.i q Q Q g.a.j.k.;X-Xk.-Xg.g.-X-Xg.g.a.g.a.` 6 U @X'  .|  .b.n.Z.G.Z.Z.Z.Z.",
"Z.Q.Z.Z.Z.Z.Q. . .| | 6.:.i Q g.g.g.g.%X%Xa.;X( -X-X-Xg.-Xs.-X%Xg.h.k.Q 6 @X| |  .| b.n.Z.Z.S.Z.c.Q.",
"Z.H.Z.Z.H.N.Z.|  . .| 6.:.Q g.a.g.-Xg.;Xg.Q s.6 s.-Xk.Q s.-Xg.&Xg.s.g.g.6 #X| | |  .H.Z.Z.Q.Z.Z.Z.P.",
"Z.Z.b.b.K.Z.Z. . .| 6 Q Q g.j.Q &Xg.Q k.( g.Q 6 / g.a.6 g.j./ g.s.Q g.k.g.6 | |  . .Q.!.Z.G.Z.Z.P.P.",
"Z.b.n.!.Z.Z.Z...| $. .6 g.Q 6 k.g.Q 8 Q 6 ` / 6 / s.Q 6 Q g.6 / k.Q Q k.g.8  .| |  .Z.Z.G.Z.Z.Z.}.Z.",
"b.!.G.Z.Q.!.H.|  . .$.6.6 6 g.Q Q 6 / 6 6 ( 6 -X6 / 6 ;X6 Q 6 6 Q ( 6 k.g.Q 6  .| | Z.A.A.Z.Z.Z.).c.",
"Z.H.!.!.!.!.}. .| |  .6.p 4 Q Q 6 6 6 -X-X6 -X-X-X6 -X-X%X6 -X-X6 6 6 ( s./ 8  .| ..Z.c.Z.Z.Z.!.Z.c.",
"!.!.Q.G.!.!.!... .|  .6.# W 6 6 r.r.-X-X-X-X-X-X-X-X-X-X;X-X-X-X-Xr.6 / h.Q # | | | b.N.c.c.Z.Z.N.!.",
"Z.H.!.!.!.!.!.| | |  .6.# Q Q 6 r.u.-X-X-X-X-X-X-X-X-X-X-X-X-X-X-Xr.6 Q Q Q $  . .| Z.b.c.Z.Z.P.Z.Z.",
"H.!.H.H.!.Q.!.|  .| | 6.# Q Q 6 H r.u.-X-X-X-X-X%X-X-X-X-X-X-X-X-Xu.A 6 Q Q #  .| | Z.c.c.N.!.P.P.Q.",
"!.!.!.Z.Z.Z.!.|  .|  .q.a # ! 6 A u.r.r.u.u.-X-X-X-X-X-X&Xr.r.u.u.u.A 6 / # ,  . .$.b.b.b.!.!.P.!.!.",
"!.Z.Z.Z.!.G.!. . . .| , A # / 8 A A A A A A u.u.-X-X-Xr.w.A A C C G A 6 / # a ,  . .x.b.c.Z.Z.P.!.Q.",
"!.Z.H.!.!.!.}. .$.|  .2 ;X( # a A u.A A A A A w.u.r.u.u.A C A A A -XA a # A &X; |  .x.c.Z.Z.Z.!.!..X",
"!.Z.!.!.Q.!.!.| | |  .  ;Xu.8 j A u.-X-X-X-XA u.u.w.r.r.A -X-X-X-X-XA a p e.&X   .' b.N.c.Z.!.!./.G.",
"!.!.H.!.G.)..X|  .|  .O A u.8 a G C a a , a -Xr.r.r.r.r.-Xf , f a A A a 6 u.A    .| Z.c.Z.Z.Z.!.A.Z.",
"b.!.H.!.!.Q.).| |  . .6.  a , a A A ;Xf , , -X-Xr.` ( ;X-X, , f -XA A a 2 a    . .| Z.Z.Z.c.Z.Z.H.H.",
"!.G.!.!.Q.G.). .|  .$.q.<.    a A -XC ;Xa a ;X-X;X` / &X-Xa a -XD &XH a      .| | ..Z.Z.Z.!.P.H.!.G.",
"}.Q.P.H.!.).).|  .$. .6.>.u   h G -XC C A A -X-X-XQ / / -XA A A H &XH a   @X|  .| | P.Z.Z.Z.!.K.!.Q.",
"!.G.Q.G.!.!.!. . . .| 6.<.i e   A -X;X;X;X-X;XA -X/ / A -X-X-X-X-X-XA   L #X .|  . .b.b.C.Q.^.P.Q.!.",
"Q.!.!.!.Q.!.). .|  . .6.:.i e   f A r.r.u.-X-X-XA A A %X-X-Xr.e.u.A a   U #X .| | | Q.G.^.P.P.P.!.G.",
"G.!.!.)..XQ.Q.| | |  .6.:.i q v   a A u.u.u.r.r.u.r.r.r.r.r.r.w.A a   M K #X|  . .| c.N.G.G.P.P.Q.!.",
"!.!.!.).).)..X .| $. .q.:.i e v R     a A r.u.u.u.r.r.r.r.e.A ,     3.M K @X .| |  .b.n.N.P.P.^.H.!.",
"!.!.).).)..XXX . .| | 6.>.i e v , , ,     a a D D A A A a a     ; , , , K @X|  . .| Z.G.P.P.^.}..XH.",
"G.!.!.).)..XXX| |  .| 6.:.i e , A u.r.A a                   a a A u.u.A 1 @X .| |  .Z.!.P.P.P.P.!.!.",
"!.Q.!.Q.!..X.X . .|  .6.:.u , A e.#X-XA r.r.C f f a a f A u.r.A A -X&Xr.D ; | | |  .Q.G.P.P.!.!.H.!.",
"G.!.G.Q.!..X.X| | $. .6.:.i , A u.-X-XC u.-X-Xu.A A A u.-X;Xu.A A ;X-Xr.A a ,  ...| !.Z.P.P.P.!.H.!.",
"!.Q.G.!.!..X.X| | |  .q.:.i , A u.r.a a u.-X;Xr.r.A u.u.-X-Xr.A a A u.u.A C j , |  .Z.G.!.!.Q.G.H.H.",
"!.Q.H.Q.!./.!. ...| $.6.:.u , A A A A , A r.u.u.r.A r.r.r.u.r.A   f A A f A D , | | Z.Q.Q.G.P.Z.G.Q.",
"!.b.Z.P.!.G.G. .|  .| 6.<.  A u.u.u.A u., u.u.u.A A A u.r.r.F a ,       h A D a ,  .Q.G.K.P.N.Z.G.Q.",
"Z.Z.Q.G.!.!.!.| .. . .6.<.  u.-X-Xu., A , A A A u.r.r.A A A F a , =.3.M   a f h , | ).Q.Z.b.b.G.Q.Z.",
"G.!.P.P.}.!.Q.;. .|  .9.<.  A -Xu.A ,   H r.u.r.u.r.r.r.r.r.H a , =.2.M     a a    .P.Z.b.b.x.N.H.H.",
"G.Q.!.!.!.G.Q. .| |  .6.:.i   A A A   A r.i.y.r.r.r.w.r.r.r.r.H , =.2.M I        . .P.P.Z.Z.Z.P.!.!.",
"!.!.!.!.!.!..X|  . . .9.:.i q       , r.r.r.r.r.u.r.r.r.u.r.u.r., *.3.M U @X . .| | P.P.Z.P.P.).!.!.",
"!.).}.!.!.!..X .|  . .6.:.u e v R l , , 1 , , r.r.r., H r.r.r., , =.2.M K @X .|  .| P.Z.P.P.).).!.!.",
" X}.P.P.Q.!.!.$. .|  .9.:.i q v R l , a A u.u., u., A -X;Xr.r.a , =.2.M J @X|  .|  .!.!.!.).Q.)..X.X",
"}.P.P.P.P.!.!. . .| $.6.<.i e v Y l l 1 a A A a   , C -X;Xr.H , b &.2.M K @X .|  .| ).).!.Q.!.G..X.X",
"!.G.P.P.P.).!. . .|  .6.:.i e v Y l l     a h     , A u.r.A , = b =.2.M K @X|  .|  .).!.H.!.Q.!..X.X",
"Q.!.P.P.P.P.P.| |  .| 6.:.i w v Y l l c   a a   & , f A A a 1 = v -.3.M K @X .|  .| ).!.!.!.G.!.!..X",
"P.!.Q.C.b.Q.G. .| | | 6.:.i 0 v R l l c l k 3 * & , a r.r.a , = b -.3.M K @X ... .| !..X!.!.!.!..X!.",
"P.P.).P.!.!.Q.|  . .| 4.].].].l.].].].].].l.].].].].].].].].].].].].].].].l. .| |  ..X!.!.!.!.!..X!.",
"Q.Q.G.Z.H.P.Z.| |  .|  .|  . .|  .|  .|  . . .|  .| |  . .| | |  .|  .|  .| | | |  ..X!.!.!.!.!.!.Q.",
"G.).G.Q.Z.Z.P.|  .|  .|  .|  . .| | |  .|  .|  .|  .|  . .|  . .|  .|  .|  ...|  .| .X.XG.Q.!.!.!.!.",
").G.Q.G.Q.Z.Q.|  .|  .|  .|  .|  .|  .|  .|  .|  .|  .|  .|  .|  .|  .|  .|  .| |  ..X!.!.Q.}.!.H.G.",
"Q.).Q.G.!.Z.P.| |  .|  .|  .|  .|  .|  .|  .|  .|  .|  .|  .|  .|  .|  .|  .|  .|  ..X.X.X.X!.H.!.!."
};
