/* XPM */
static char *player_right_door1673654191[] = {
/* columns rows colors chars-per-pixel */
"50 50 212 2 ",
"   c black",
".  c #010000",
"X  c #010101",
"o  c #000002",
"O  c #000022",
"+  c #010022",
"@  c #000122",
"#  c #000074",
"$  c #022D9E",
"%  c #002E9E",
"&  c #0054AA",
"*  c #0054AC",
"=  c #0155AD",
"-  c #013DDC",
";  c #023CDC",
":  c #023EDD",
">  c #013CDE",
",  c #005DE1",
"<  c #015DE2",
"1  c #005DE3",
"2  c #005EE2",
"3  c #005FE2",
"4  c #005EE4",
"5  c #005CEB",
"6  c #005DEB",
"7  c #015DEC",
"8  c #016AE7",
"9  c #0B63E8",
"0  c #0A65E9",
"q  c #0C64E9",
"w  c #0D64E9",
"e  c #0069E8",
"r  c #0269E9",
"t  c #006AE8",
"y  c #016AE9",
"u  c #006BE9",
"i  c #0269EA",
"p  c #016AEA",
"a  c #026BEA",
"s  c #009DEA",
"d  c #019EEB",
"f  c #02A5EA",
"g  c #01A5EC",
"h  c #00B3EB",
"j  c #00B4E9",
"k  c #01B5EA",
"l  c #01B4EC",
"z  c #28B8ED",
"x  c #29B9ED",
"c  c #28B9EE",
"v  c #29B9EE",
"b  c #2ABAEF",
"n  c #29B8F0",
"m  c #4EAFF4",
"M  c #4DB0F3",
"N  c #4DB0F4",
"B  c #4CB1F5",
"V  c #4EB1F4",
"C  c #4FB0F5",
"Z  c #4EB1F5",
"A  c #4CB1F7",
"S  c #4EB0F7",
"D  c #4DB2F6",
"F  c #4FB2F6",
"G  c #11DAEA",
"H  c #12DBEB",
"J  c #13DBEB",
"K  c #11DCEB",
"L  c #12DBED",
"P  c #13DCEC",
"I  c #00E5EB",
"U  c #00E4ED",
"Y  c #00E5ED",
"T  c #5BC7F6",
"R  c #5CC6F6",
"E  c #5DC7F7",
"W  c #5EC7F7",
"Q  c #5DC8F6",
"!  c #5CC8F7",
"~  c #5DC7F9",
"^  c #5EC8F8",
"/  c #57E5FB",
"(  c #57E5FD",
")  c #56E7FC",
"_  c #57E4FF",
"`  c #56E6FE",
"'  c #56E6FF",
"]  c #57E7FF",
"[  c #59E5FC",
"{  c #58E4FD",
"}  c #58E6FC",
"|  c #59E5FE",
" . c #58E5FF",
".. c #58E6FE",
"X. c #59E6FF",
"o. c #59E7FF",
"O. c #5AE6FF",
"+. c #61EDEE",
"@. c #62ECEE",
"#. c #63EDEF",
"$. c #62EEEF",
"%. c #63EDF0",
"&. c #64EEF0",
"*. c #6AE9F2",
"=. c #96C1F4",
"-. c #97C3F4",
";. c #97C2F5",
":. c #98C3F6",
">. c #98C4F5",
",. c #8BEDEE",
"<. c #8DEDEC",
"1. c #8DECEE",
"2. c #8EECEE",
"3. c #8DECF0",
"4. c #86EDFC",
"5. c #86EDFE",
"6. c #8EEDFF",
"7. c #8FEEFF",
"8. c #8EEFFF",
"9. c #91EEFF",
"0. c #90EFFF",
"q. c #C7EFFB",
"w. c #C9EFFA",
"e. c #C8EEFB",
"r. c #CAEEFA",
"t. c #C9EFFC",
"y. c #CAEEFC",
"u. c #CBEFFD",
"i. c #C9EEFE",
"p. c #C8EFFE",
"a. c #CAEEFE",
"s. c #CAF0FB",
"d. c #C8F0FC",
"f. c #C9F1FD",
"g. c #CAF0FD",
"h. c #D6F3FB",
"j. c #D7F4FA",
"k. c #D7F6FB",
"l. c #D7F3FE",
"z. c #D6F4FC",
"x. c #D7F4FC",
"c. c #D8F5FB",
"v. c #D8F3FC",
"b. c #D8F5FD",
"n. c #DEFAFE",
"m. c #DFFBFE",
"M. c #E1E5E8",
"N. c #E3E4E8",
"B. c #E4E5E9",
"V. c #E6E7EB",
"C. c #E4E7EC",
"Z. c #E4E8E9",
"A. c #E4E8EB",
"S. c #E7E8EA",
"D. c #E6EAEB",
"F. c #E5E9EC",
"G. c #E5E8ED",
"H. c #E5EAED",
"J. c #E6EAED",
"K. c #E6E9EE",
"L. c #E7EBEE",
"P. c #E8E9EB",
"I. c #E8E9ED",
"U. c #EBEDEC",
"Y. c #EBECEE",
"T. c #EAEEEF",
"R. c gray93",
"E. c #ECEEED",
"W. c #ECEDEF",
"Q. c #EDEDEF",
"!. c #EDEFEE",
"~. c #EEEEEE",
"^. c #E9EDF0",
"/. c #EAEEF1",
"(. c #EBEFF2",
"). c #ECEDF1",
"_. c #EDEEF0",
"`. c #EEEEF0",
"'. c #EEEFF1",
"]. c #EFEFF1",
"[. c #EDEEF2",
"{. c #EFF0F2",
"}. c #E2F9FF",
"|. c #E1FAFE",
" X c #E1FAFF",
".X c #E2FAFE",
"XX c #E2FBFF",
"oX c #EEFCFF",
"OX c gray94",
"+X c #F0F0F2",
"@X c #F0F1F3",
"#X c #F1F3F2",
"$X c #F1F2F4",
"%X c #F5F6F8",
"&X c #F0FBFD",
"*X c #F1FAFF",
"=X c #F0FBFF",
"-X c #F5FAFE",
";X c #F6FBFE",
":X c #F7FAFF",
">X c #F6FBFF",
",X c #F1FCFF",
"<X c #F4FCFF",
"1X c #F7FCFF",
"2X c #FBFBFD",
"3X c #FDFBFE",
"4X c #FCFBFF",
"5X c #FBFCFE",
"6X c gray99",
"7X c #FCFCFE",
"8X c #FDFDFF",
"9X c #FEFCFF",
/* pixels */
"W.W.W.U._.J.C.[ [ ] [ ] [ ] ] ] ] ] { ] [ ] ] [ [ ] ] ] ] { ] ] ] [ ] ] [ ] ] [ ] ] {.W._.W.W._.W.W.",
"_.W.W.J.J.C.J.[ ] [ [ [ ] [ [ ] { { [ ] ] [ ] { ] [ [ [ { ] [ { ] o.[ [ ] [ ] ] [ [ _.W.W.W._._.W.W.",
"W.W.W.W._.J.J.[ [ ] [ ] [ [ ] [ [ [ ] [ ] ] [ [ [ ] ] [ [ ] ] [ [ o.[ [ [ [ ] [ ] o._.W.W._._.W._.W.",
"J.W._.U.)._.J.] ] [ ] [ ] ] [ ] ] [ R ~ ^ ^ ^ R ~ ~ R R T ~ [ ] ] o.[ [ ] [ [ ] [ [ _.W.W._._.W.W.W.",
"J.).J.U.J.J.J.] ] [ ] 4.|.|.|.|.^ ! R v.x.x.v.x.x.b.Q R ~ ~ R R R |.|.XX|.|.[ ] o.] ).J.U.J.W.W.).J.",
"J.J.J.J.J.)._.[ [ ] [ 6.:.9 ~ ^ T x.b.h.x.x.x.b.R R b.v.v.x.b.b.b.R ~ c G ;X] [ ] [ J.Z.J.J.Y.J.J.J.",
"U.J.C.).U.J.J.] [ ] [ 9.R ^ R b.x.T x.b.x.b.R R v.b.=X=Xx.v.=Xc.=Xx.x.R P ;Xo.] [ ] J.Z.J.).J.J.J.J.",
"J.).J.J.J.J.).[ / ] ] 9.Q b.x.x.v.x.R ~ ~ R Q b.x.=XoXx.x.=X=Xx.=X=Xx.=X~ ;X[ [ ] [ N.C.J.J.J.D.C.U.",
"J.Y.J.J.Y.D.J.] [ [ ] ~ Q b.v.b.x.x.x.~ Q ! x.x.=X=X=Xv.v.=Xv.R x.=X~ x.=XR ] ] [ { Y.J.J._.J.J.J.W.",
"J.J.C.C.R.J.J.[ [ ] ] T x.x.x.R x.x.x.x.~ ^ x.=Xx.=Xv.R h.=XR ~ x.h.< R R b.^ < ] [ _._.J.U.J.J._.W.",
"J.C.Z._.J.J.J.{ ] [ R b.=X=Xx.x.T R x.x.< x.x.x.R c.R R R v.< 4 R v.< < ~ Q 4 [ [ ] J.J.).J.J.D.+XJ.",
"C._.U.J.)._.Y.] [ [ R v.=X7X7X=Xx.~ Q Q < x.x.^ ~ ~ e , R R e 7X, R e p < < [ o.] [ J.J.C.J.J.J._.V.",
"J.Y._._._._.+X[ ] ^ x.v.x.,X7X7X=X=XR < ~ j.x.< ^ Q < 7X< R < 7X7X4 7Xp < < 4 [ ] { J.C.D.J.J.W.J.V.",
"_._.).U._._._.{ ] ^ x.v.Q R =X=X3XoX,X< ~ x.Q < < Q < 7X3X< 7X7X7X7X7Xp J ;X] [ ] ] C.C.N.C.D.J.V.W.",
"J.Y._._._._._.] [ ~ =X=X,XR ^ Q ,XoX7XO ^ x.Q < 6X< 7X7X7X7X7X7X6X7X2Xp J ;X[ ] { ] D.C.C.D.J.W.J.J.",
"Y._.Y.Y._.)._.] ] R x.=X7X=XR ^ R R ,XO ^ Q < w.d.q.7X7X7X7X7X7X2X6Xg.p K ;X] [ ] ] D.D.C.V._.W.W.).",
"_._._.J.J.J._.] [ R x.x.=X7X,XR Q R Q O R ^ < g.g.w.g.g.u.u.w.7Xq.q.u.p J ;X[ ] [ ] V.C.V.Y.W.W._.[.",
"_.J.J.J.W.W.W.[ [ ~ x.j.R =X=X=XQ - - - O Q < d.u.B B B B B B u.u.q.A p G ;X] [ ] [ N.N.C.J.J.W._.U.",
"_.J.W._._._.{.] [ ^ x.x.b.R R ^ - p B p O Q < u.u.u.6XA B C B B q.u.8 c G 1X] ] ] [ V.N.J.J.J._._.$X",
"_.J._._.W._.{.[ ] ^ j.b.x.^ ^ R - g.7XA - O < q.w.d.6X6X7X7X7XC u.w.8 c G 1X] [ [ / C.C.V.J._._._.).",
"W.U._._._._.$X] ] ] R h.x.x.Q ^   d.7XB w.u.q.u.q.u.u.M p - p 7Xu.u.p c G ;X[ [ [ ] Y.C.D.J.J.Y.J.J.",
"J._.Y.)._.U.[.[ ] ] R h.b.R R R   p g.C w.u.u.q.u.u.w.B 8 - - 7Xw.d.p c P 1X] ] { ] J.J.J.N.J.J.Y.U.",
"_.U._._._.)._.[ ] [ [ ~ b.c.Q R R   p B u.q.u.u.q.u.u.B 7Xp p 7X7X7Xp c G 1X[ [ [ ] C.J.J._.R.Y.U.).",
"+X).W.Y._.{.{.] [ ] [ 9.O b.b.R Q ~     u.q.q.g.u.w.u.B 7X8 p 7X7X7Xg.p G ;X[ ] ] ] W.J.J.J._.)._._.",
"_.U.U._.)._.[.[ ] ] [ 6.O b.b.b.~ Q ^ C B w.u.w.q.q.q.u.B A B 3X6X6Xu.p G 1X] [ [ [ D.C.J.)._.Y._._.",
")._._._.Y._.{.[ ] [ ] 6.;.O R ~ R ^ Q A B q.u.u.u.g.u.q.u.u.6X3X6Xu.B p G ;X[ ] ] ] U.U.U.Y._._.Y.).",
"U._._.{.$X)._.] [ ] [ 0.:.0 O Q ^ R C C B C g.g.q.u.q.u.u.q.u.q.w.B   c P ;X] [ [ ] C.C.).U._._.W.W.",
"_.[._.{.{.{.$X[ o.o.o.6.;.w 7 O   p B C C B C B u.q.u.q.q.u.u.B p   2.c G 1X[ ] ] [ V.C.C._._._.W._.",
"_._.{.{.{.$X%X[ ] [ ] 6.;.9 5 l Y       p p B C B B C B B p p     @.2.c G ;X] ] [ ] C.W.U._._.[.+XW.",
"U._._.{.{.$X%X] [ ] [ 6.;.9 5 l Y - p B                       * k %.2.c G ;X] [ ] [ J.W._.W._._._._.",
"_.)._.)._.$X$X[ ] [ [ 6.:.9 7 l - B g.3X7Xg.C C C w.u.B B - % * k @.2.c G 2X[ ] ] [ W.W._.U._._.W._.",
"U._.U.)._.$X$X] [ ] [ 9.:.w 7 - p u.w.7X7Xu.g.B C u.u.7X7Xg.- * k %.2.n G ;X] [ ] [ W.J.U._._._.U._.",
"_.).U._.+X+X+X] ] [ o.6.>.0 7 - C d.d.d.C p     B C d.7X7Xg.- & l @.2.n G 1X[ ] [ ] J.W.W.W.W.W.Y.Y.",
"_.).Y.)._.[._.[ ] [ [ 6.;.0 7 - C C V V p   M a a B C d.g.g.- - k @.2.c G ;X[ o.] [ J.).W.W.W.J.).U.",
"_.C.J.W._.U.U.[ ] [ ] 6.;.w - p C d.C : - B C F B C C B B C - p : @.2.n G ;X] ] ] [ )._.R.).D.J.U.).",
"J.J.).U._._._.] [ ] [ 9.=.w - B d.g.: - C C F M C C d.d.C - 8 C p - 2.c G ;X[ [ [ ] _._.J.N.C.U.).J.",
"U._.W.W.+X_.).*.o.] o.6.;.9 - w.7X7XC : B F C B M s.u.g.B - p C - - 2.c K 1X[ ] [ ] W.J.C.C.M.J.Y.).",
"U.)._._._.U.).[ [ o.[ 8.;.0 - w.7X7XC   C C C C d.d.q.u.B # a a   @.2.c K 1X] o.] [ W.W.J.J.D.W.)._.",
"_._._._._._.$X] ] ] ] 6.;.w   C B a F   C F C C g.u.u.q.B       k &.2.c J ;X[ [ ] ] _._.J.W.W._.+XU.",
"_.{.+X_._._.$X[ [ ] [ 6.;.w 7   C a   g   B B u.u.w.w.u.  * % * k @.2.c J ;X[ ] ] [ U.J.W.W.+X+X_._.",
"$X$XW.W._._._.] ] ] o.6.>.w 7 l     f g ;     B q.u.6Xu.- * % * k %.1.c J 1X[ ] [ ] _._._._._._.$X$X",
"{.W.W.W.W._._.[ [ [ [ 6.>.0 5 l Y s d f - p p   B q.6X2Xa - % * k @.2.c J ;X] [ ] [ $X[._._._._.$X$X",
"W.W.W.W.W._._.[ ] [ ] 6.:.9 5 l I s d   p p p -   B u.q.u.u.- * k %.1.c J ;X[ ] [ ] _._.Y.)._._.$X{.",
"W.W.W.W.W._.).[ [ ] [ 6.;.9 5 l Y d d   - p p 8   p B u.u.B - * k @.3.c G ;X] [ ] [ +X_._._.R._._.$X",
"W._.U.J.J.U.).] [ ] ] 6.;.9 5 l Y s d g   - p p -   B C - - % & k %.2.c G 1X[ ] o.[ $X_._._._._.$X+X",
"W.W._._.)._.U.] ] ] [ 5.|.|.|.n.|.|.|.|.|.|.|.|.|.|.|.XX|.|.|.n.|.|.|.|.|.|.] [ ] [ _._._._._._.$X_.",
").U._.J._.).J.] [ ] [ ] [ ] [ [ ] [ o.[ [ [ ] [ ] [ [ [ ] [ ] [ ] ] ] [ [ ] [ ] [ ] $X_._._._._.W.W.",
"U.).).).J.C.R.{ ] [ ] [ ] [ [ ] [ ] ] [ ] ] [ ] [ ] o.[ [ ] [ ] ] [ ] [ ] [ ] [ ] [ $X$X_.Y._._._._.",
"{.)._._.).J.U.[ ] [ ] [ ] [ ] [ ] [ ] [ ] [ ] [ ] [ ] [ ] [ ] [ [ ] [ ] [ ] [ ] { ] $X_._.R._._.R.).",
"U.{.U.)._.J._.] [ ] [ ] [ ] [ ] [ ] [ ] [ ] [ ] [ ] [ ] [ ] [ ] ] [ ] [ ] [ ] [ ] [ $X$X$X$X_.).)._."
};
