/* XPM */
static char *_880528f11e14a518a29fa1edea56f90pLdCVlkgIW915P9n[] = {
/* columns rows colors chars-per-pixel */
"51 50 247 2 ",
"   c #ECEDEE",
".  c #EAECEE",
"X  c #E9EBED",
"o  c #EBEDEE",
"O  c #EAECED",
"+  c #E6E9EB",
"@  c #E5E8EA",
"#  c #E7EAEC",
"$  c #E8EAEC",
"%  c #E7E9EB",
"&  c #E4E7E8",
"*  c #E4E6E8",
"=  c #E5E7E9",
"-  c #E4E7E9",
";  c #E5E8E9",
":  c #ECEEEE",
">  c #EBECEE",
",  c #EBECED",
"<  c #E9EAEC",
"1  c #E8EBED",
"2  c #EDEEF0",
"3  c #EEEFF1",
"4  c #F0F1F3",
"5  c #F3F4F6",
"6  c #F2F4F5",
"7  c #F1F3F4",
"8  c #F1F2F5",
"9  c #EFF0F2",
"0  c #ECEEEF",
"q  c #E9EBEC",
"w  c #E6E8EA",
"e  c #E7EAEB",
"r  c #E3E6E8",
"t  c #E2E4E7",
"y  c #E9ECED",
"u  c #F2F3F4",
"i  c #F2F3F5",
"p  c #F1F2F4",
"a  c #E3E5E7",
"s  c #E0E2E5",
"d  c #E0E2E6",
"f  c #E8EBEC",
"g  c #ECEDEF",
"h  c #F0F1F2",
"j  c #EFF0F1",
"k  c #F1F2F3",
"l  c #E7E9EA",
"z  c #E0E3E6",
"x  c #E4E6E9",
"c  c #EAEBED",
"v  c #F0F1F4",
"b  c #EDEFF0",
"n  c #E6E9EA",
"m  c #CBCDD5",
"M  c #BBBDC8",
"N  c #BDBEC9",
"B  c #BEBFCA",
"V  c #BEBEC9",
"C  c #BABCC7",
"Z  c #BBBDC7",
"A  c #BBBCC8",
"S  c #BCBDC8",
"D  c #BCBEC8",
"F  c #CFD1D8",
"G  c #585978",
"H  c #000032",
"J  c #5A5B7A",
"K  c #575878",
"L  c #595A79",
"P  c #D5D8DE",
"I  c #CDD0D7",
"U  c #CDCFD6",
"Y  c #5F5F7E",
"T  c #1A1A47",
"R  c #5F607F",
"E  c #CED1D8",
"W  c #D0D2D8",
"Q  c #D8D9DF",
"!  c #DDDFE2",
"~  c #46476A",
"^  c #9D9DB0",
"/  c white",
"(  c #4B4C6E",
")  c #DEE0E3",
"_  c #47486A",
"`  c #D5D7DD",
"'  c #D1D3DA",
"]  c #CECFD6",
"[  c #0D0D3D",
"{  c #9AA2B5",
"}  c #F2FEFF",
"|  c #F4FBFC",
" . c #F7F8F9",
".. c #9D9EB1",
"X. c #4D4E70",
"o. c #D3D5DB",
"O. c #D4D6DC",
"+. c #D9DBE0",
"@. c #EBEDED",
"#. c #E8EAEB",
"$. c #B4B6C2",
"%. c #2C2C55",
"&. c #0A0B3C",
"*. c #B1B1C1",
"=. c #62F7FF",
"-. c #00F2FF",
";. c #2ABFCD",
":. c #607F8D",
">. c #9DB0B9",
",. c #ACACBD",
"<. c #3E3E63",
"1. c #B6B8C4",
"2. c #3E3E64",
"3. c #EFF1F2",
"4. c #C3C5CF",
"5. c #303159",
"6. c #EEEFF0",
"7. c #A7A8B8",
"8. c #1F1F4B",
"9. c #262952",
"0. c #C9CAD4",
"q. c #F8FAFC",
"w. c #90A6B1",
"e. c #25C6D3",
"r. c #80F8FF",
"t. c #BBBBC8",
"y. c #A8A9B8",
"u. c #1F204B",
"i. c #ECEEF0",
"p. c #A8A9B9",
"a. c #303158",
"s. c #E2E4E6",
"d. c #A9A9B9",
"f. c #20204B",
"g. c #F4FEFF",
"h. c #4DF6FF",
"j. c #9DFAFF",
"k. c #A6B7BF",
"l. c #2F3058",
"z. c #E2E5E7",
"x. c #E2E4E8",
"c. c #E1E3E7",
"v. c #E3E5E8",
"b. c #E2E3E7",
"n. c #EEF0F1",
"m. c #A6A7B7",
"M. c #2F2F57",
"N. c #9697AA",
"B. c #141442",
"V. c #47476C",
"C. c #DCDCE3",
"Z. c #D9FDFF",
"A. c #36F5FF",
"S. c #0DF3FF",
"D. c #B2FBFF",
"F. c #71F8FF",
"G. c #CACAD5",
"H. c #22224D",
"J. c #9698AB",
"K. c #141542",
"L. c #9698AC",
"P. c #141543",
"I. c #22234E",
"U. c #00ECFC",
"Y. c #41A2B1",
"T. c #9697AB",
"R. c #22234D",
"E. c #9597AB",
"W. c #9496A9",
"Q. c #E8EBEE",
"!. c #829AA5",
"~. c #5C8191",
"^. c #1D99DC",
"/. c #00A4FF",
"(. c #00D4FF",
"). c #9798AC",
"_. c #EDEEEF",
"`. c #F3F3F5",
"'. c #9899AE",
"]. c #151543",
"[. c #999AAF",
"{. c #D9F1FF",
"}. c #36B7FF",
"|. c #0088D3",
" X c #0077B7",
".X c #62ABD3",
"XX c #23234E",
"oX c #F0F2F3",
"OX c #9899AD",
"+X c #9799AD",
"@X c #419AC9",
"#X c #ABD2E7",
"$X c #C6E0EF",
"%X c #001A52",
"&X c #0081D4",
"*X c #00A2FC",
"=X c #0085CD",
"-X c #0093E3",
";X c #53A3CE",
":X c #303058",
">X c #A5A6B6",
",X c #EBEDEF",
"<X c #A9A9BA",
"1X c #A9AABA",
"2X c #EFF0F3",
"3X c #A6A7B8",
"4X c #E8E9EB",
"5X c #BEC0CA",
"6X c #00063A",
"7X c #005390",
"8X c #00508C",
"9X c #3D3E63",
"0X c #ECEDF0",
"qX c #B2B4C0",
"wX c #2A2B54",
"eX c #EFEFF1",
"rX c #B3B4C1",
"tX c #2B2B54",
"yX c #EDEFF1",
"uX c #DFE0E4",
"iX c #D4D6DB",
"pX c #44496F",
"aX c #00063C",
"sX c #000940",
"dX c #000B42",
"fX c #464B71",
"gX c #D8DADF",
"hX c #DADBE0",
"jX c #4C4D6F",
"kX c #4D4D6F",
"lX c #4C4C6F",
"zX c #D8D9DE",
"xX c #CCCED6",
"cX c #CBCDD6",
"vX c #CBCDD7",
"bX c #CDCED8",
"nX c #CDCFD7",
"mX c #CACCD4",
"MX c #C9CCD4",
"NX c #C9CBD4",
"BX c #CECFD7",
"VX c #D7D8DE",
"CX c #F1F1F3",
"ZX c #E9ECEE",
"AX c #F0F0F2",
"SX c #F3F4F5",
"DX c #F2F2F4",
/* pixels */
"  . X o O + @ # X $ % & * = - ; @ ; @ % $ X o : o > , < 1 . o o o 2 3 4 5 6 7 8 4 4 4 9 2 2   0 2 0 o ",
"> X q O $ w w % w e w % w = * r * t t - + y o o > > X $ X > > X y 2 9 u i p i i 4 4 3 2 0   o 2 0 o > ",
"X X . O q + % w + $ w + = = a s s d t - % . > > O X f q O o   g 2 3 h h j k 5 i k 4 3 2 0 .   0 : > O ",
"f $ O O X X % $ O l - r * = a z t x w % c o o o > c f X > o 2 3 3 9 4 9 4 k i v 9 9 b 0 o >   o 0 O y ",
"e $ $ $ X f # . % * r * = % - - @ n % m M N B V N M C Z A S D F 2 2 0 2 3 9 9 b 0 o O X e $ f o : O X ",
"e % + % f $ $ O w * - w $ n & - @ + w G H H H H H H H H H H H J o O >   o   > O 1 e f + = w % f % $ + ",
"X $ w % $ w $ X w % $ X % = - @ n ; - K H H H H H H H H H H H L $ f X $ % # + $ + @ = r a w $ # w % w ",
"$ $ % # # $ . $ f $ % $ @ @ n ; P I U Y T T T T T T T T T T T R E W Q = r - + @ @ @ * a @ $ % % @ w f ",
"e f $ $ q X # w = n w ; - @ = ! ~ H H ^ / / / / / / / / / / / ^ H H ( w = - @ - w w w + $ % # e + e $ ",
"% w & ; f e w = w $ + r - * = ) _ H H ^ / / / / / / / / / / / ^ H H ( e n w $ f X o O $ $ f f % $ 0 . ",
"+ r = # $ + + % O . $ w r ` ' ] ( [ [ { } } } } } } } } |  . ...[ [ X.o.O.+.o O > @.e % % f $ e X 0 $ ",
"w % : $ q . o   0 . O #.$.%.H &.*./ / =.-.-.-.-.-.-.-.-.;.:.:.>./ / ,.H H <.$ #.q l % e $ e w ; X X - ",
"w . 0 . 2 3 9 3 0 O > g 1.%.H &.*./ / =.-.-.-.-.-.-.-.-.;.:.:.>./ / ,.H H 2.X q #.$ e = ; = - n . w & ",
"O o   > 2 9 3.3 2 0 3 3 4.5.H &.*./ / =.-.-.-.-.-.-.-.-.;.:.:.>./ / ,.H H 2.$ % X $ @ r - r * n % @ q ",
"$ X > o 2 3 3 6.9 7.8.H 9.0./ q.w.:.:.e.-.-.-.-.-.r./ / / / / / / / / / / t.H H 5.X % = - * & w $ e $ ",
"O o > .   0 0 0 2 y.u.H 9.0./ q.w.:.:.e.-.-.-.-.-.r./ / / / / / / / / / / t.H H 5.1 + ; - r w X o > . ",
"2 o q $ e f O . i.p.u.H 9.0./ q.w.:.:.e.-.-.-.-.-.r./ / / / / / / / / / / t.H H a.#.= * s.* $ : 2 0 b ",
": $ % X X O 0 3 9 d.f.H 9.0./ g.h.-.-.j./ / k.:.:.:.:.:.:.:.:.>./ / / / / t.H H l.& z.x.c.= % e o 0 0 ",
"0 . > : 0 2 9 3 3 p.u.H 9.0./ g.h.-.-.j./ / k.:.:.:.:.:.:.:.:.>./ / / / / t.H H l.r v.b.x = w $ 3 0 n.",
"O O 2 2 2 2 3 2 3 m.8.H 9.0./ g.h.-.-.j./ / k.:.:.:.:.:.:.:.:.>./ / / / / t.H H M.t x.x = - @ O 2 2 0 ",
"O o       0 N.B.H V.C./ Z.A.-.S.D./ / =.-.-.-.-.-.-.-.-.F./ / / / / / / / / / / G.H H H.- @ w $ O % w ",
". X o     0 J.K.H V.C./ Z.A.-.S.D./ / =.-.-.-.-.-.-.-.-.F./ / / / / / / / / / / G.H H H.w n - w % % X ",
"2 0 0 0 0 9 L.P.H V.C./ Z.A.-.S.D./ / =.-.-.-.-.-.-.-.-.F./ / / / / / / / / / / G.H H I.$ % % X o 0 0 ",
"2 : o 0 0 : N.B.H V.C./ Z.A.-.U.Y.:.:.e.-.-.-.-.-.-.-.-.F./ / / / / / / / / / / G.H H H.w n X o .   2 ",
"  > O o > : T.B.H V.C./ Z.A.-.U.Y.:.:.e.-.-.-.-.-.-.-.-.F./ / / / / / / / / / / G.H H R.+ + f O O > 0 ",
"o O > o 0 4 E.B.H V.C./ Z.A.-.U.Y.:.:.e.-.-.-.-.-.-.-.-.F./ / / / / / / / / / / G.H H R.% . O . > O o ",
". >   6.k 2 W.B.H V.C./ Q.!.:.~.^././.(.-.-.-.-.-.-.-.-.F./ / / / / / / / / / / G.H H H.r e : 0 : o . ",
"  0 2 h 9 9 ).P.H V.C./ Q.!.:.~.^././.(.-.-.-.-.-.-.-.-.F./ / / / / / / / / / / G.H H H.= + o 2 _.  o ",
"2 3 9 3 4 `.'.].H V.C./ Q.!.:.~.^././.(.-.-.-.-.-.-.-.-.F./ / / / / / / / / / / G.H H R.% X   0 3 6.2 ",
"0 2 2 2 3 i [.].H V.C./ {.}./././././.|. X X X X X X X X X X X.X/ / / / / / / / G.H H XXX >   2 2 0 0 ",
"      > 0 oXOX].H V.C./ {.}./././././.|. X X X X X X X X X X X.X/ / / / / / / / G.H H XXX O   0 0     ",
"0   . > 2 p +XP.H V.C./ {.}./././././.|. X X X X X X X X X X X@X#X#X$X/ / / / / G.H H I.f O o 0 :   0 ",
"> O X > 3 p 9 0 0 m.8.H %X&X/.*X=X X X-X/././././././././././.-X X X;X/ / t.H H :X% X f X O >   O .   ",
". $ $ . 2 j 6.0 o >X8.H %X&X/.*X=X X X-X/././././././././././.-X X X;X/ / t.H H :X% % e O o o q % X o ",
"e @ $ X : 0 0 o 0 7.8.H %X&X/.*X=X X X-X/././././././././././.-X X X;X/ / t.H H a.f f O 2 ,X$ = % 0 o ",
"# $ . > 0 3 0 0 n.<Xf.H %X&X/.*X=X X X-X/././././././././././.-X X X;X/ / t.H H 5.X . 2 2 w z.v.X O @ ",
".   0 0 2 o   6.4 1Xf.H %X&X/.*X=X X X-X/././././././././././.-X X X;X/ / t.H H :X$ o o $ = a - % % . ",
"o :   0 0   2 2Xk 3X8.H %X&X/.*X=X X X-X/././././././././././.-X X X;X/ / t.H H :X4X> > X w w % c 2 0 ",
"o 0 2 9 0 2 4 4 3 > . c 5XM.H 6X7X X X-X/././././././././././.-X X X8XH H 9Xl % w % O o q % X > 9 3 O ",
"3 3 3 0 $ 0X4 9 2 0 0 O qXwXH 6X7X X X-X/././././././././././.-X X X8XH H <.e n % $ e O $ . o 3 3 2 3 ",
"4 h _.X . 2 b 2 eX3 2 q rXtXH 6X7X X X-X/././././././././././.-X X X8XH H <.$ $ O q o 2 yX3 yX2 3 4 i ",
"9 : c c o 2 2 2 9 3 0 O 4XuX+.iXpXaXaXsXdXdXdXdXdXdXdXdXdXdXdXsXaXaXfXgXhXuXO . X > 2 3 9 2   o 0 4 i ",
": o o >   6.9 3 3 3 ,X> . ,X: o jXH H H H H H H H H H H H H H H H H ( X > . . . . : _.3 0 . . > : 9 p ",
"o 0   X O     c 0   c . o 0 b 2 kXH H H H H H H H H H H H H H H H H lX> o f q O o 2 eX9 2 2 2   0 9 p ",
"    . e X o X O > . o 2 j 2 3 _.zXxXm m m cXvXbXnXxXmXMXNXNXmXm BXnXVX> > c O o 0 3 9 h 9 3 2 2 3 CX3.",
"0 > X $ q > .     0 2 _.o   > c c X f y >   g 2 0   > O O O . > o 0 0 0 2 0 0 0 0 2 6.eX3 3 2 2 2 3 0 ",
". . o X X X X ,X0   O $ $ $ w w % # e q X ZX>     > . . . . . o 0 2 3 h k 4 4 9 4 9 9 9 AXj 2 :   o o ",
"    0 . q + q . O O f e w & * = e $ e e f O o 0 0           g 2 3 9 4 p u 4 9 p i i SXSXCX6.0 0 _.2 0 ",
"0 0 0 > q $ . X X o f w = = * r w - - w $ . o o . o 0 0 0 0 0 0 2 j CXDXk k 4 CXp SXi k 9 3 2 j 3 0 o ",
"0 0 . X X $ $ % X > < $ w = r - x x.v.@ f ZXO O ,   0 o . > > o : b 9 4 p u k p p p 9 9 4 9 3 3       "
};
