/* XPM */
static char *_fcad01c0e384031a81b4bb3ab45e766C5DqhAvTlc20ia7Z[] = {
/* columns rows colors chars-per-pixel */
"50 50 167 2 ",
"   c #5BDFF4",
".  c #5CDFFF",
"X  c #66DDE1",
"o  c #6CDEE5",
"O  c #63DDEE",
"+  c #6DDDEC",
"@  c #7ED5E6",
"#  c #73D9E6",
"$  c #79D9E5",
"%  c #7ED6E9",
"&  c #72DCEE",
"*  c #7CDAEB",
"=  c #64DEF4",
"-  c #6DDDF3",
";  c #65DEF9",
":  c #6DDAF9",
">  c #72DCF1",
",  c #79DAF3",
"<  c #55E6ED",
"1  c #4CE9F2",
"2  c #4CE4FF",
"3  c #4EEBFC",
"4  c #52E5F6",
"5  c #5CE3F4",
"6  c #54EAF4",
"7  c #56E6FE",
"8  c #5AE5FD",
"9  c #54E9FC",
"0  c #5AEAFC",
"q  c #6CE2EC",
"w  c #70E3E6",
"e  c #70E0EB",
"r  c #64E1F3",
"t  c #69E2F5",
"y  c #6DEBF2",
"u  c #63E1FA",
"i  c #68E2F9",
"p  c #75E1F7",
"a  c #72E2FA",
"s  c #82D5E5",
"d  c #81D5E9",
"f  c #89D4EB",
"g  c #82D8EF",
"h  c #82DAF0",
"j  c #8DEEF4",
"k  c #84EEFD",
"l  c #8FEFFB",
"z  c #91EEF5",
"x  c #93ECFE",
"c  c #8CF2F7",
"v  c #8CF1F9",
"b  c #B4FFFF",
"n  c #BEFCFF",
"m  c #DEECE6",
"M  c #DFECEC",
"N  c #C9EFF8",
"B  c #D6EFF6",
"V  c #DBEEF5",
"C  c #DEEFF9",
"Z  c #CCF3F5",
"A  c #CDF3FB",
"S  c #C5FCFF",
"D  c #CBFDFF",
"F  c #D7F0F5",
"G  c #DCF3F6",
"H  c #DEF8F5",
"J  c #D4F6FF",
"K  c #DCF3FA",
"L  c #D2FEFF",
"P  c #DCFEFF",
"I  c #E3EAE5",
"U  c #ECECE6",
"Y  c #E4E6EB",
"T  c #E9E7ED",
"R  c #E5EBED",
"E  c #EBECEE",
"W  c #F1EDEE",
"Q  c #F1ECED",
"!  c #EDF3E7",
"~  c #E5F0E8",
"^  c #E5F2E8",
"/  c #E7F0EB",
"(  c #E6F2EC",
")  c #E9F3EB",
"_  c #E9F5EB",
"`  c #ECF0EF",
"'  c #EBF2EC",
"]  c #F1F0EE",
"[  c #EDE5F0",
"{  c #EFE5F0",
"}  c #EDE7F1",
"|  c #EAE7F0",
" . c #E4EBF1",
".. c #E7EAF1",
"X. c #E5EFF0",
"o. c #E7EFF1",
"O. c #E5ECF2",
"+. c #E6EDF3",
"@. c #E7EEF4",
"#. c #E5ECF1",
"$. c #E9E8F0",
"%. c #E8EBF0",
"&. c #EAEAF2",
"*. c #ECE9F0",
"=. c #EDEBF0",
"-. c #EFEAF1",
";. c #E8EDF1",
":. c #E9EDF0",
">. c #EBECF0",
",. c #EBECF1",
"<. c #E8EDF3",
"1. c #E9EEF2",
"2. c #EBEEF3",
"3. c #ECEDF1",
"4. c #EEECF1",
"5. c #EDECF2",
"6. c #EDEEF2",
"7. c #EEEEF0",
"8. c #EFE9F5",
"9. c #E8EFF5",
"0. c #ECEDF1",
"q. c #F0E6F1",
"w. c #F3E6F0",
"e. c #F9E7F7",
"r. c #F2EBF3",
"t. c #F8E8F3",
"y. c #F2ECF8",
"u. c #E6F2F3",
"i. c #E8F1F6",
"p. c #ECF1F2",
"a. c #E1F5FC",
"s. c #E8F7FA",
"d. c #E1FFFF",
"f. c #E2FFFF",
"g. c #E3FEFF",
"h. c #EFFFFF",
"j. c #E9FFFF",
"k. c #F0F1F3",
"l. c #FBFEF7",
"z. c #FDFFF6",
"x. c #F4FBFF",
"c. c #F3FFFF",
"v. c #F4FDFF",
"b. c #F5FDFF",
"n. c #F5FFFF",
"m. c #F6FFFF",
"M. c #F7FFFF",
"N. c #F6FFFE",
"B. c #FCFFF8",
"V. c #FDF9FF",
"C. c #FBFFFD",
"Z. c #F8FDFF",
"A. c #FBFCFF",
"S. c #F8FFFF",
"D. c #F9FFFF",
"F. c #FBFFFF",
"G. c #FFFDFD",
"H. c #FFFFFD",
"J. c #FFFDFE",
"K. c #FFFCFF",
"L. c #FEFDFF",
"P. c #FFFDFF",
"I. c #FDFEFF",
"U. c #FCFFFF",
"Y. c #FFFEFF",
"T. c white",
"R. c #FEFFFE",
/* pixels */
"^ _ ^ E E M n @ : u . 8 8 8 8 7 7 7 7 7 7 7 7 7 7 7 7 7 7 7 7 7 7 7 . u 7 3 8 8 8 e J 5.i.+.E Q E E ",
"^ ) E E E F n @ ; u 7 8 8 8 8 8 7 7 7 7 7 8 8 7 7 8 7 8 8 7 7 7 3 7 u 8 0 4 7 7 7 & J p.p.u.! W E 5.",
"E ` E E *.V n @ = 0 3 1 < < 6 9 8 8 8 8 8 8 8 8 8 8 8 8 8 8 8 8 9 5 5 5 < 1 9 9 9 q D >.9.>.W T r.p.",
"E E E r.5.G n # i 8 4 < y # w o > > > > > > > > > > > > > > > & o o & # w y 4 7 9 q A >.@.p.5.E ` 5.",
"T *.T | %.F n # = 5 r k n L P P L L D L L D D L L D L D L D L L L L P L D b : 8 5 * A ..+.+.( ( E E ",
"T T T T %.V n # t 5 q l g.N.C.V.C.N.N.N.N.N.N.N.N.N.N.N.N.N.N.N.c.x.J.C.c.P , u u & A Y ....u.M R E ",
"*.r.q.q.r.C S $ t u q j P C.J.J.J.C.C.C.J.C.J.C.J.C.C.C.J.C.J.C.C.C.C.C.c.P & 5 5 # A M R | Y R R T ",
"..>.T [ } V S % t 5 r j g.N.G.G.J.J.J.J.J.J.J.J.J.J.J.J.J.J.J.J.B.B.J.C.N.P + 9 0 & Z Y T T +.Y E %.",
"( u.M ..+.V S % 5 0 5 c g.N.J.G.J.J.J.J.J.J.J.J.J.J.J.J.J.J.J.C.z.z.G.J.J.P + 7 9 & Z E r.T E E T >.",
"M M M Y #.B n % ; 8 r c g.C.J.G.J.C.J.C.J.C.J.C.J.J.C.J.C.J.J.J.G.G.G.J.J.P t 7 8 & A I W T E T >.>.",
"Y Y Y T >.B S d i 8 5 x j.G.G.G.J.J.J.J.J.J.J.J.J.J.J.J.J.J.J.J.J.G.J.J.J.P t 9 7 & A E Q T T T k.5.",
"R E E E >.V D d ; 8 r x h.G.G.J.J.J.J.J.J.J.J.J.J.J.J.J.J.J.J.J.J.J.J.J.J.P > 7 7 + Z I E U T %.%.R ",
"R u.E u.u.a.D f : u t x h.G.C.C.J.J.G.G.J.J.J.G.G.G.J.J.J.J.J.G.J.J.J.J.J.g., 8 8 > Z I I Y E *.T Y ",
"( u.>.( u.H L s : u t x h.J.C.N.G.J.G.G.J.J.G.G.G.J.J.J.J.J.G.G.J.J.J.J.J.g., . 7 & Z I m I T %.T E ",
"*.r.W 5.( J S s ; u u l j.J.C.B.C.J.J.J.J.J.J.J.J.J.J.J.J.J.J.J.J.C.C.C.C.P , 8 8 + Z I m M %.8.T R ",
"w.t.W E ( G S @ - 8 u l j.J.C.B.J.J.J.C.J.J.C.J.J.C.J.C.J.J.C.J.C.C.N.N.C.P > 8 8 + Z I m M 9.6.5.>.",
"r.W E E R F S % t 8 u x j.J.C.J.J.J.J.J.J.J.J.J.J.J.J.J.J.J.J.J.G.C.C.C.C.P & 8 8 - A Y R R +.E p.k.",
"T E E R R G S % r 5 = x j.J.J.J.J.J.J.J.J.J.J.J.J.J.J.J.J.J.J.J.G.J.J.J.J.P & 9 8 > N Y Y E E ` T E ",
"5.E Y E E K D % q 5 u x j.C.C.J.J.J.J.J.J.J.J.J.J.J.J.J.J.J.J.J.J.J.J.J.J.P & 8 8 > N m Y E E ` k.k.",
"r.] E ` p.a.D % t 5 u x j.J.J.J.J.J.J.J.J.J.J.J.J.J.J.J.J.J.J.J.J.J.J.J.J.P > 0 7 + N Y Y Y E E p.E ",
"5.E 5.` p.G D % r 5 u x j.C.J.J.J.J.J.J.J.J.J.J.J.J.J.J.J.J.J.J.G.G.J.J.J.P & 0 8 > A Y  .T E E E E ",
"E E E ` >.G S d r 5 u x j.J.J.J.J.J.J.J.J.J.J.J.J.J.J.J.J.J.J.J.G.J.J.J.J.P & 7 7 > A T ..Y E E E T ",
"5.E E ` >.K D % r 5 u x j.C.J.J.J.J.J.J.J.J.J.J.J.J.J.J.J.J.J.J.J.J.J.J.J.P & 8 7 > A R R R E E E E ",
"k.k.E ` p.a.S % q u ; x j.J.C.J.J.J.J.J.J.J.J.J.J.J.J.J.J.J.J.J.J.J.J.J.J.P & 8 7 > A | ..R E E E E ",
"T r.E ` p.G D % q 0 u x j.J.J.J.J.J.J.J.J.J.J.J.J.J.J.J.J.J.J.J.G.G.J.J.J.P & 8 8 > A Y ..E E E E p.",
"5.` E ` E K D % r u = x j.J.J.J.J.J.J.J.J.J.J.J.J.J.J.J.J.J.J.J.G.J.J.J.J.P & 9 8 - A ..>.p.5.! W E ",
"r.E p.` p.a.S % r 5 ; x j.J.J.J.J.J.J.J.J.J.J.J.J.J.J.J.J.J.J.J.J.J.J.C.J.P & 0 7 - A Y >.p.5.E 5.E ",
"E k.r.` p.a.D % r 5 ; x j.C.C.J.J.J.J.J.J.J.J.J.J.J.J.J.J.J.J.J.J.J.J.J.J.P > 7 7 & A Y R ..` E E p.",
"T k.p.` p.a.D d q 0 = x j.C.J.J.J.J.J.J.J.J.J.J.J.J.J.J.J.J.J.J.J.G.J.J.J.g.& 9 8 > A R >.>.p.k.` r.",
"r.p.W ` p.g.D d = 5 ; x j.J.J.J.J.J.J.J.J.J.J.J.J.J.J.J.J.J.J.J.J.J.J.J.J.P & 0 7 > A >.>.p.p.p.E E ",
"E r.E E p.a.L % q 0 u x j.C.C.J.J.J.J.J.J.J.J.J.J.J.J.J.J.J.J.J.J.J.J.J.J.P & 7 7 > J >.5.p.E E 5.` ",
"E ` E E 5.g.D % r 5 u x j.J.J.J.J.J.J.J.J.J.J.J.J.J.J.J.J.J.J.J.J.J.J.J.J.P & 7 7 > A >.5.E E ` p.E ",
"W W W E ] s.D d r 5 u v j.J.J.J.J.J.J.J.J.J.J.J.J.C.J.J.J.J.J.J.J.J.J.J.J.P & 7 9 & J T r.r.E ( ` E ",
"E E E W ` i.D d r 5 r x j.J.J.J.J.G.J.C.J.C.J.G.J.J.J.J.J.J.J.J.J.J.J.J.J.g.q 9 9 & J W r.5.R E p.r.",
"R #. .>.>.G D d r 0 5 v j.J.G.G.G.G.G.G.J.G.G.G.G.G.J.G.G.z.G.G.z.G.J.J.J.P + 9 9 & J r.r.T Y E E E ",
"u. .+.i.6.V D h r 5 r c g.C.G.z.G.z.G.J.G.G.z.G.G.z.G.G.G.G.z.G.z.z.G.B.B.P q 6 4 & J T %.T Y T E E ",
"*.%.5.k.6.G S h r 0 5 x g.J.G.z.J.J.J.J.J.C.J.J.G.J.J.J.J.J.J.C.l.l.N.N.N.L q 9 4 & J T T Y Y T E ` ",
"Q W 5.r.*.a.D * u 5 u x j.J.G.G.J.J.C.J.J.J.J.J.J.J.J.C.J.C.J.C.l.N.c.c.N.P - 7 8 > J | T R E E 5.` ",
"U ] ) ) ) G S % r 0 u x j.G.G.G.J.J.J.J.J.J.J.J.J.J.J.J.J.J.J.J.C.C.J.J.G.g.> ; 8 , K <.%.u.E ( ` E ",
"! ! _ _ ) H D % = 5 = x j.J.G.G.J.J.J.J.J.J.J.J.J.J.J.J.J.J.J.J.J.J.J.J.G.g.> 8 8 , K Q 5.u.( _ ` p.",
"] _ ^ ^ ^ G S % t 5 t x j.C.C.C.J.J.J.J.J.J.J.J.J.J.J.J.J.J.J.J.C.C.G.G.J.g.p 4 7 & J t.*.E _ _ k.k.",
"] ` E ( ^ H D d i 5 t x j.C.N.C.J.J.J.J.J.J.J.J.J.J.J.J.J.J.J.J.B.G.V.J.G.P e 9 7 + P t.r.E p.( k.k.",
"t.W *.5.E a.D % r 5 r z j.J.J.G.J.C.J.J.J.G.G.B.J.C.G.G.C.C.J.G.G.z.G.G.J.g.X 1 6 + J W r.r.E E k.k.",
"e.e.8.5.E G S % t u t x j.J.V.J.B.N.N.N.N.N.N.N.N.N.N.N.C.N.C.C.G.G.C.B.N.P q 0 4 + P ` 5.r.E p.k.k.",
"e.y.<.9.( G S % t 8 ; x j.V.N.C.C.N.N.N.N.N.N.N.N.N.N.N.N.N.N.N.C.C.N.N.c.P + 5 5 # P p.p.>.E p.k.k.",
">.p.>.+.I F S % i 8 u k S P L L L L L L L L L L L L L L L L L L L L D L L S t 8 8 $ J p.u.p.r.E k.k.",
"E ) E R U R A d = 7 2 7 > % + + - - > - > - - > > - > - - > - > a - O + $ * 8 7 u , J s.u.p.E W E E ",
"^ ^ ) U U ..D d u 7 3 9 5 5 0 1 7 7 . 8 7 8 8 7 8 8 7 8 8 7 8 7 7 7 9 6 r   7 2 8 , L u.u.u.W Q ` k.",
"E ` E U E O.S d r 7 9 7 0 5 7 7 0 7 7 8 7 0 7 8 8 7 8 7 8 7 7 8 7 7 7 8 5 5 7 9 8 > J p.E p.5.5.` E ",
"5.p.! U 5.G S % u 7 7 7 8 8 7 7 7 0 8 8 8 7 8 7 7 8 7 0 7 8 8 0 9 9 8 8 8 8 7 7 7 > L k.k.] 5.p.5.E "
};
