/* XPM */
static char *c3c4dc1f787c4130949a7810381412383S30YburPMfFxaiy[] = {
/* columns rows colors chars-per-pixel */
"50 50 11 1 ",
"  c None",
". c black",
"X c #000022",
"o c #003DDC",
"O c #005EE3",
"+ c #006AE9",
"@ c #4EB1F5",
"# c #5DC8F7",
"$ c #CAEFFC",
"% c #D7F4FD",
"& c #FAFCFF",
/* pixels */
"                                                  ",
"                                                  ",
"                                                  ",
"                                                  ",
"                                                  ",
"                       ######                     ",
"                    ###%%##%%####                 ",
"                   ###############                ",
"                 ###%%%%%%%%%%%%%###              ",
"                ##%%%%&&%&%%&&%%%%%#O             ",
"               #%%%%&&%&#&&&%&%&&%%%#O            ",
"              #%%%&%&%#%O%&%#%&%&%%%%O            ",
"           O##%%#&%#%#%#O#%%O%%#%%#%%%O           ",
"            O%#O%%#O#O##O#%#O#%O#%##%%O           ",
"             OO%##O#OO#O&O#O&O#OO##O%%#O          ",
"             OO##OOO&&O&&&O&&&O&&OOO#%#O          ",
"             X#OO$$&&&&&&&&&&&&&&&$O#%#X          ",
"             X##O$$&&&&&&&&&&&&&&&$O###X          ",
"             X##O@$$&&&&&&&&&&&&&&$@O##X          ",
"             +X#O@$$$$$&&&&&&&$$$$$@O#Xo          ",
"            o@X#O@@@@@@$$&&&$$@@@@@@O#X+o         ",
"            o&#X+@$@@@@@$$$$$@@@@@&@+X@&o         ",
"            .&$O+@$&&&&@$$$$$@&&&&&@+O$&.         ",
"            .@$O+@@++o+&$$$$$&+o++@@+O$@.         ",
"             .+o+@@&+oo&&$##&&oo+&@@+o+.          ",
"              ..+@&@&++&&&##&&++&@&@+..           ",
"               .+@&@@@@&&&###&@@@@&@+.            ",
"                .@&&&&&&@&##@&&&&&&@.             ",
"                .+@$$$&&&@@@&&&$$$@+.             ",
"                 .+@$$$$$$$$$$$$$@+.              ",
"                  ..+@$$$$$$$$$@o..               ",
"                 ooo..++@@@@@++..oooo             ",
"                o@$$@+.........++@$$@o            ",
"               o@$&&@$$@+++++@$$@@&&$@o           ",
"               o@$&&@$&&$@@@$&&$@@&&$@+o          ",
"               o@$$++$&&$$@$$&&$@+@$$@@+o         ",
"               o@@@@o@$$$$@$$$$$@.+@@+@@o         ",
"              .@$$$@$o$$$@@@$$$@+o...+@@+o        ",
"              .$&&$o@o@@@$$$@@@@+o   .+++o        ",
"              .@&$@o.@$$$$$$$$$@+o   ..++.        ",
"               .@@@.@$$$$$$$$$$$@o    ...         ",
"                ...o$$$$$$$$$$$$$o                ",
"                   ooooo$$$o@$$$oo                ",
"                   o+@$$o$o@&&$$+o                ",
"                    o+@@+.o@&&$@o                 ",
"                    ..++..o@$$@o                  ",
"                     .++. o+@@+o                  ",
"                          o+$$+o                  ",
"                                                  ",
"                                                  "
};
