/* XPM */
static char *_79e0f52a9f84c3cab0d79c67bb6a035beBsM8tmiLJvcuJX[] = {
/* columns rows colors chars-per-pixel */
"50 50 16 1 ",
"  c None",
". c black",
"X c #000027",
"o c #000074",
"O c #003EDA",
"+ c #004ADD",
"@ c #015EE2",
"# c #0468E7",
"$ c #057BEA",
"% c #4FB0F5",
"& c #5DC7F7",
"* c #C9EEFC",
"= c #D6F4FD",
"- c #EFFBFE",
"; c #FBFBFE",
": c white",
/* pixels */
"                                                  ",
"                                                  ",
"                                                  ",
"                                                  ",
"                                                  ",
"                    &&&&&&&&&&&&                  ",
"                 &&&&&&&=======&&&                ",
"               &&=======&&=======&&&              ",
"              &==-=-==--==&&====&==&&&            ",
"             &-=--=--==--==&&&&&=====&            ",
"            &-=&-=&=-==---==&&&======&&           ",
"          @&=&&@==&&-=&=-=-=&&====&===&           ",
"           @&&@@=&@@=&&&=&===@==&&==--=&          ",
"            @@#@&@;@&&@@&&&==@&&&=-::-=&          ",
"           @@@#;@;;@&@;@&&@==&@&--::-===&         ",
"              #;;;;;@;;@&@@&=&@--:--&&==&         ",
"              #;;;;;;;;;@;@&=&X:--&&&---&         ",
"              #*;;;;;;;;***@&&X-&&&&-:-=&         ",
"              #***;********@&&X&&&&-:-==&         ",
"              #%***%%%%%%**@&XOOO&---&==&         ",
"               #**%%%%%;***@&X#%#O&&&===&         ",
"               #**%;;;;;***@XO%;*O&&&===&         ",
"               #**;#+$%*******%;*.&&===&          ",
"               #**;++$%*******%*#.&&&==&          ",
"               #;;;$$;%*******%#.&&&==&           ",
"              #*;;;$$;%*******..&&&==X            ",
"              #*;;;%%%*******%%&&&===X            ",
"              #%*;;;*********%%&&&&&X             ",
"               .%***********%%%%&&&X              ",
"                .#%*******%%%%%%#.X               ",
"                 ..##%%%%%%%##...                 ",
"                   ...........%#O                 ",
"                    O%%**%%%*;;*%O                ",
"                   O*;;**%%**;;**#O               ",
"                   O*;;*%%..#%***%O               ",
"                  OO***%%##%.#%%%%O               ",
"                 O#O%%%%%%%%%OO%*%#O              ",
"                O#%#O%**%%%%%%OO**%O              ",
"                OO%#O%***%%%%%O%;;*O              ",
"                 .##o%****%%%%.%;;*O              ",
"                  ...%****%%%%.%#%%.              ",
"                     .*****%%. .#%.               ",
"                     O*;**%..O  ..                ",
"                    O#;;*%.##O                    ",
"                   O****%.O###.                   ",
"                   O%**%#.###O.                   ",
"                    OO%%.O##O.                    ",
"                                                  ",
"                                                  ",
"                                                  "
};
